<svg id="svg" version="1.1" xmlns="http://www.w3.org/2000/svg" xmlns:xlink="http://www.w3.org/1999/xlink" width="400" height="164.6505376344086" viewBox="0, 0, 400,164.6505376344086"><g id="svgg"><path id="path0" d="M171.750 10.158 C 171.475 10.224,171.016 10.400,170.729 10.549 C 170.443 10.698,170.172 10.783,170.126 10.738 C 170.081 10.692,169.656 11.080,169.182 11.598 C 168.708 12.117,168.354 12.576,168.396 12.618 C 168.437 12.660,168.372 12.933,168.250 13.225 C 167.676 14.598,167.592 17.790,168.087 19.417 C 168.255 19.967,168.381 20.465,168.368 20.525 C 168.299 20.845,169.783 22.196,170.631 22.584 C 171.839 23.137,171.552 23.122,181.375 23.146 L 189.667 23.167 189.667 42.333 C 189.667 52.875,189.610 61.497,189.542 61.494 C 189.473 61.491,189.004 60.963,188.500 60.321 C 186.626 57.935,183.917 55.242,181.639 53.500 C 181.340 53.271,180.961 52.952,180.797 52.792 C 180.634 52.631,180.481 52.509,180.458 52.521 C 180.406 52.547,176.823 50.242,176.545 50.002 C 176.432 49.906,176.282 49.819,176.212 49.810 C 175.922 49.773,175.260 49.471,174.533 49.045 C 174.108 48.796,173.683 48.577,173.588 48.557 C 173.494 48.538,173.004 48.361,172.500 48.163 C 171.996 47.965,171.321 47.720,171.000 47.617 C 170.679 47.514,170.379 47.390,170.333 47.340 C 170.287 47.291,170.175 47.239,170.083 47.226 C 169.992 47.213,168.965 46.968,167.801 46.682 C 165.758 46.180,164.859 45.998,164.333 45.980 C 164.196 45.976,163.971 45.935,163.833 45.891 C 162.795 45.553,154.078 45.559,153.531 45.898 C 153.433 45.958,153.143 46.003,152.885 45.998 C 152.188 45.984,151.038 46.150,149.952 46.422 C 149.422 46.554,148.935 46.655,148.869 46.645 C 148.804 46.635,148.712 46.642,148.667 46.659 C 148.621 46.677,148.396 46.725,148.167 46.765 C 147.938 46.806,147.406 46.952,146.986 47.091 C 146.565 47.229,146.078 47.371,145.902 47.406 C 145.727 47.441,145.371 47.553,145.111 47.653 C 144.851 47.754,144.576 47.797,144.500 47.750 C 144.424 47.703,144.335 47.744,144.303 47.841 C 144.270 47.939,144.133 48.038,143.997 48.063 C 143.861 48.088,143.460 48.233,143.105 48.387 C 142.750 48.541,142.413 48.667,142.357 48.667 C 142.272 48.667,141.202 49.152,140.167 49.660 C 138.611 50.424,136.048 51.967,134.342 53.167 C 133.755 53.579,133.208 53.896,133.125 53.871 C 133.043 53.846,133.018 53.894,133.070 53.978 C 133.121 54.062,132.958 54.262,132.707 54.424 C 130.369 55.928,125.419 61.889,123.165 65.917 C 122.857 66.467,122.538 66.963,122.455 67.019 C 122.372 67.075,122.301 67.187,122.297 67.269 C 122.286 67.452,121.955 68.220,121.837 68.333 C 121.789 68.379,121.737 68.492,121.722 68.583 C 121.707 68.675,121.472 69.238,121.199 69.833 C 120.927 70.429,120.651 71.092,120.586 71.307 C 120.521 71.521,120.322 72.026,120.144 72.429 C 119.966 72.831,119.830 73.181,119.841 73.205 C 119.852 73.230,119.674 73.750,119.444 74.360 C 119.214 74.971,119.070 75.515,119.124 75.569 C 119.178 75.623,119.130 75.667,119.018 75.667 C 118.906 75.667,118.852 75.729,118.900 75.806 C 118.947 75.883,118.846 76.408,118.675 76.973 C 118.504 77.538,118.410 78.000,118.465 78.000 C 118.521 78.000,118.483 78.084,118.380 78.187 C 118.277 78.290,118.232 78.477,118.281 78.604 C 118.329 78.730,118.282 78.833,118.175 78.833 C 118.068 78.833,118.026 78.907,118.081 78.996 C 118.136 79.086,118.098 79.470,117.996 79.849 C 117.894 80.229,117.804 80.758,117.796 81.026 C 117.788 81.293,117.726 81.547,117.657 81.589 C 117.588 81.632,117.570 81.817,117.618 82.000 C 117.669 82.195,117.623 82.333,117.508 82.333 C 117.388 82.333,117.351 82.461,117.414 82.659 C 117.471 82.838,117.431 83.457,117.326 84.034 C 117.220 84.611,117.102 85.571,117.064 86.167 C 117.026 86.763,116.964 87.662,116.926 88.167 C 116.836 89.376,116.834 95.832,116.923 97.000 C 116.961 97.504,117.028 98.404,117.072 99.000 C 117.116 99.596,117.237 100.594,117.343 101.219 C 117.448 101.844,117.489 102.400,117.435 102.454 C 117.381 102.508,117.419 102.652,117.520 102.774 C 117.621 102.896,117.661 103.107,117.609 103.243 C 117.557 103.378,117.590 103.536,117.683 103.593 C 117.775 103.650,117.823 103.781,117.789 103.884 C 117.754 103.987,117.857 104.635,118.017 105.323 C 118.177 106.011,118.271 106.632,118.227 106.703 C 118.183 106.775,118.222 106.833,118.313 106.833 C 118.405 106.833,118.471 106.965,118.460 107.125 C 118.449 107.285,118.523 107.679,118.624 108.000 C 118.725 108.321,119.044 109.371,119.334 110.333 C 119.841 112.020,120.133 112.814,120.895 114.570 C 121.090 115.021,121.256 115.433,121.264 115.486 C 121.367 116.180,124.346 121.439,125.520 123.000 C 125.692 123.229,126.138 123.850,126.510 124.381 C 128.165 126.738,133.431 131.570,136.083 133.165 C 136.450 133.385,136.787 133.607,136.833 133.658 C 137.119 133.974,142.062 136.434,142.750 136.603 C 143.240 136.723,144.099 137.105,144.206 137.250 C 144.273 137.342,144.329 137.364,144.331 137.301 C 144.332 137.237,144.765 137.336,145.292 137.521 C 145.819 137.706,146.392 137.887,146.565 137.923 C 146.738 137.960,147.273 138.104,147.754 138.244 C 148.235 138.384,148.956 138.539,149.356 138.589 C 149.756 138.639,150.108 138.752,150.139 138.841 C 150.170 138.930,150.265 138.959,150.350 138.906 C 150.435 138.854,150.897 138.891,151.377 138.988 C 152.433 139.203,153.883 139.361,154.639 139.344 C 154.945 139.337,155.271 139.378,155.365 139.436 C 155.600 139.581,161.348 139.559,161.716 139.412 C 161.881 139.346,162.312 139.331,162.675 139.380 C 163.037 139.429,163.378 139.395,163.433 139.306 C 163.489 139.217,163.627 139.180,163.741 139.223 C 163.854 139.267,164.653 139.158,165.515 138.980 C 166.378 138.803,167.421 138.590,167.833 138.508 C 168.246 138.425,168.796 138.276,169.056 138.177 C 169.315 138.079,169.597 138.040,169.681 138.092 C 169.765 138.144,169.833 138.104,169.833 138.003 C 169.833 137.901,169.927 137.839,170.042 137.864 C 170.490 137.960,176.133 135.545,177.208 134.797 C 177.460 134.621,177.668 134.539,177.669 134.614 C 177.671 134.689,177.727 134.675,177.794 134.583 C 177.959 134.357,179.833 133.139,179.833 133.257 C 179.833 133.308,180.077 133.122,180.375 132.843 C 180.673 132.563,180.977 132.335,181.052 132.334 C 181.633 132.331,190.069 124.357,189.522 124.328 C 189.464 124.325,189.570 124.193,189.758 124.036 C 189.946 123.879,190.150 123.619,190.211 123.458 C 190.508 122.682,190.584 123.513,190.589 127.625 C 190.595 133.200,190.808 134.486,191.951 135.844 C 192.440 136.425,193.804 137.167,194.383 137.167 C 194.600 137.167,194.817 137.205,194.864 137.253 C 194.990 137.379,213.740 137.359,214.070 137.232 C 214.223 137.174,214.391 137.169,214.444 137.222 C 214.641 137.419,216.482 136.324,217.029 135.685 C 219.428 132.883,218.302 125.703,215.324 124.811 C 214.963 124.703,214.667 124.561,214.667 124.495 C 214.667 124.430,212.325 124.362,209.462 124.345 C 206.600 124.328,204.238 124.293,204.214 124.269 C 204.189 124.245,204.167 99.467,204.165 69.209 C 204.163 36.989,204.100 14.170,204.013 14.138 C 203.931 14.108,203.825 13.838,203.779 13.539 C 203.622 12.525,202.192 10.629,201.542 10.572 C 201.473 10.566,201.020 10.438,200.534 10.288 C 199.598 9.997,172.924 9.877,171.750 10.158 M231.250 10.237 C 228.832 10.992,227.840 12.306,227.537 15.154 C 227.367 16.753,227.495 18.692,227.828 19.568 C 227.924 19.821,227.960 20.097,227.908 20.181 C 227.856 20.265,227.884 20.333,227.970 20.333 C 228.056 20.333,228.227 20.577,228.349 20.875 C 228.640 21.583,229.028 21.912,230.290 22.525 C 231.536 23.130,231.387 23.118,238.125 23.145 L 243.500 23.167 243.500 73.750 L 243.500 124.333 238.625 124.365 C 235.944 124.383,233.581 124.399,233.375 124.400 C 233.169 124.402,233.000 124.451,233.000 124.509 C 233.000 124.567,232.709 124.701,232.353 124.808 C 231.997 124.914,231.613 125.114,231.499 125.251 C 231.386 125.388,231.194 125.500,231.075 125.500 C 230.955 125.500,230.688 125.837,230.482 126.250 C 230.276 126.662,230.033 127.000,229.943 127.000 C 229.852 127.000,229.823 127.045,229.878 127.100 C 229.934 127.156,229.902 127.399,229.808 127.642 C 229.520 128.387,229.308 132.215,229.534 132.591 C 229.586 132.679,229.628 132.939,229.627 133.171 C 229.625 133.638,230.265 135.269,230.612 135.680 C 230.734 135.825,230.796 135.994,230.750 136.055 C 230.704 136.117,230.714 136.131,230.773 136.088 C 230.831 136.045,231.075 136.148,231.315 136.316 C 231.999 136.799,233.116 137.329,233.222 137.222 C 233.275 137.169,233.447 137.175,233.604 137.235 C 233.904 137.350,252.467 137.384,252.857 137.271 C 252.982 137.234,253.383 137.122,253.750 137.022 C 255.045 136.666,256.500 135.319,256.500 134.475 C 256.500 134.305,256.573 134.167,256.661 134.167 C 256.750 134.167,256.780 134.054,256.727 133.917 C 256.674 133.779,256.695 133.667,256.774 133.666 C 256.989 133.666,257.083 131.694,257.083 127.208 C 257.083 124.985,257.124 123.167,257.173 123.167 C 257.222 123.167,257.531 123.523,257.859 123.958 C 259.802 126.538,264.375 130.796,267.417 132.857 C 269.973 134.589,273.382 136.486,273.958 136.496 C 274.073 136.498,274.167 136.563,274.167 136.639 C 274.167 136.715,274.260 136.784,274.375 136.791 C 274.490 136.798,275.108 137.007,275.750 137.256 C 276.392 137.506,277.123 137.746,277.375 137.790 C 277.627 137.835,277.833 137.942,277.833 138.029 C 277.833 138.115,277.900 138.145,277.980 138.095 C 278.061 138.045,278.543 138.147,279.050 138.322 C 279.557 138.496,280.014 138.597,280.065 138.546 C 280.117 138.494,280.261 138.538,280.386 138.641 C 280.512 138.745,280.662 138.783,280.720 138.725 C 280.778 138.667,280.928 138.704,281.053 138.808 C 281.178 138.912,281.319 138.959,281.366 138.912 C 281.413 138.865,281.819 138.905,282.267 139.001 C 283.417 139.247,284.303 139.349,285.130 139.333 C 285.522 139.326,285.923 139.369,286.022 139.430 C 286.239 139.565,291.982 139.570,292.333 139.436 C 292.471 139.384,292.846 139.343,293.167 139.345 C 293.969 139.350,295.247 139.205,296.289 138.991 C 296.769 138.892,297.238 138.858,297.331 138.915 C 297.424 138.973,297.500 138.931,297.500 138.824 C 297.500 138.710,297.640 138.664,297.833 138.715 C 298.017 138.763,298.167 138.739,298.167 138.661 C 298.167 138.584,298.301 138.531,298.466 138.543 C 298.794 138.568,301.209 137.937,302.219 137.563 C 302.569 137.433,302.919 137.367,302.997 137.415 C 303.075 137.463,303.163 137.443,303.194 137.370 C 303.257 137.221,306.088 136.106,306.265 136.160 C 306.328 136.179,306.425 136.124,306.481 136.038 C 306.573 135.897,308.181 135.124,308.298 135.165 C 308.324 135.174,308.540 135.028,308.778 134.841 C 309.017 134.653,309.275 134.500,309.353 134.500 C 309.557 134.500,313.322 132.094,314.081 131.478 C 314.987 130.742,316.925 129.065,317.358 128.643 C 317.625 128.381,318.029 128.046,318.256 127.898 C 318.482 127.750,318.667 127.559,318.667 127.474 C 318.667 127.389,318.823 127.154,319.015 126.951 C 320.491 125.391,322.925 122.039,324.262 119.722 C 325.041 118.372,326.714 115.069,326.740 114.828 C 326.746 114.779,326.874 114.442,327.026 114.078 C 327.481 112.991,328.033 111.523,328.040 111.382 C 328.044 111.309,328.192 110.837,328.370 110.333 C 328.548 109.829,328.710 109.325,328.731 109.213 C 328.751 109.101,328.815 108.963,328.873 108.905 C 328.930 108.848,328.937 108.696,328.887 108.567 C 328.838 108.439,328.885 108.333,328.992 108.333 C 329.099 108.333,329.145 108.267,329.095 108.186 C 329.045 108.105,329.114 107.674,329.248 107.228 C 329.383 106.782,329.494 106.398,329.496 106.375 C 329.498 106.352,329.509 106.277,329.519 106.208 C 329.530 106.140,329.525 105.952,329.509 105.792 C 329.492 105.631,329.563 105.500,329.666 105.500 C 329.769 105.500,329.810 105.430,329.757 105.344 C 329.704 105.258,329.740 104.835,329.836 104.404 C 330.090 103.273,330.191 102.641,330.194 102.167 C 330.195 101.938,330.271 101.660,330.362 101.549 C 330.454 101.438,330.488 101.283,330.439 101.203 C 330.390 101.123,330.450 100.164,330.573 99.071 C 331.052 94.801,331.012 88.541,330.484 85.135 C 330.388 84.515,330.353 83.936,330.407 83.849 C 330.461 83.761,330.432 83.645,330.343 83.589 C 330.254 83.534,330.190 83.285,330.200 83.036 C 330.219 82.595,330.151 82.173,329.821 80.697 C 329.733 80.302,329.701 79.913,329.750 79.834 C 329.799 79.755,329.767 79.646,329.680 79.592 C 329.593 79.538,329.528 79.364,329.537 79.205 C 329.545 79.046,329.394 78.392,329.201 77.750 C 329.008 77.108,328.815 76.396,328.773 76.167 C 328.732 75.938,328.615 75.537,328.514 75.278 C 328.413 75.018,328.369 74.743,328.417 74.667 C 328.464 74.591,328.431 74.503,328.344 74.473 C 328.257 74.442,328.151 74.229,328.109 74.000 C 328.066 73.771,327.877 73.227,327.688 72.792 C 327.499 72.356,327.382 72.000,327.426 72.000 C 327.470 72.000,327.358 71.709,327.177 71.354 C 326.996 70.999,326.894 70.661,326.952 70.604 C 327.009 70.547,326.968 70.500,326.861 70.500 C 326.754 70.500,326.667 70.385,326.667 70.244 C 326.667 70.103,326.546 69.803,326.397 69.577 C 326.249 69.352,326.177 69.167,326.237 69.167 C 326.297 69.167,326.270 69.073,326.177 68.958 C 326.084 68.844,325.624 68.006,325.157 67.096 C 324.388 65.602,322.116 61.872,321.849 61.667 C 321.789 61.621,321.245 60.946,320.640 60.167 C 319.314 58.460,316.220 55.380,314.500 54.054 C 313.813 53.524,313.225 53.032,313.194 52.962 C 313.164 52.891,313.076 52.833,312.998 52.833 C 312.921 52.833,312.286 52.455,311.587 51.992 C 309.451 50.577,304.595 48.169,303.875 48.167 C 303.760 48.167,303.667 48.079,303.667 47.972 C 303.667 47.865,303.620 47.825,303.562 47.882 C 303.505 47.940,303.193 47.876,302.870 47.741 C 302.547 47.606,302.050 47.455,301.766 47.406 C 301.482 47.356,301.225 47.244,301.194 47.157 C 301.163 47.069,301.082 47.032,301.014 47.075 C 300.946 47.117,300.559 47.051,300.153 46.929 C 299.748 46.807,299.360 46.698,299.292 46.687 C 299.223 46.676,299.148 46.660,299.125 46.653 C 299.102 46.645,298.933 46.619,298.750 46.595 C 298.567 46.571,298.004 46.466,297.500 46.362 C 296.273 46.108,295.349 45.984,294.781 45.996 C 294.524 46.002,294.233 45.957,294.135 45.897 C 293.854 45.723,292.008 45.650,288.583 45.678 C 284.377 45.712,284.000 45.728,284.000 45.878 C 284.000 45.948,283.794 46.001,283.542 45.995 C 282.982 45.982,282.173 46.107,281.309 46.340 C 280.951 46.436,280.586 46.470,280.496 46.414 C 280.407 46.359,280.333 46.401,280.333 46.508 C 280.333 46.615,280.230 46.663,280.104 46.614 C 279.977 46.566,279.790 46.610,279.687 46.713 C 279.584 46.816,279.500 46.852,279.500 46.792 C 279.500 46.733,279.079 46.830,278.564 47.007 C 278.049 47.184,277.561 47.288,277.480 47.238 C 277.400 47.188,277.333 47.239,277.333 47.351 C 277.333 47.464,277.289 47.511,277.235 47.457 C 277.180 47.403,276.812 47.497,276.417 47.667 C 276.021 47.836,275.653 47.931,275.599 47.876 C 275.544 47.822,275.500 47.856,275.500 47.951 C 275.500 48.098,274.737 48.348,274.393 48.315 C 274.335 48.309,274.241 48.376,274.185 48.464 C 274.050 48.675,272.333 49.537,272.333 49.394 C 272.333 49.332,272.202 49.396,272.042 49.536 C 271.615 49.907,270.167 50.681,270.164 50.538 C 270.163 50.471,270.106 50.498,270.039 50.597 C 269.939 50.744,268.127 52.041,267.031 52.750 C 266.755 52.929,266.504 53.133,264.858 54.523 C 264.275 55.014,263.656 55.491,263.483 55.581 C 263.309 55.672,263.166 55.822,263.166 55.915 C 263.166 56.007,262.697 56.540,262.124 57.097 C 260.724 58.461,259.167 60.170,259.167 60.342 C 259.167 60.418,259.030 60.579,258.864 60.699 C 258.698 60.819,258.512 61.048,258.453 61.208 C 258.026 62.351,257.992 60.677,257.991 38.375 C 257.990 25.656,257.956 14.926,257.915 14.529 C 257.769 13.117,256.438 10.903,255.626 10.724 C 255.511 10.698,255.004 10.529,254.500 10.347 C 253.357 9.936,232.530 9.837,231.250 10.237 M94.062 44.466 C 94.119 44.558,94.007 45.147,93.813 45.775 C 93.618 46.403,93.446 47.008,93.429 47.120 C 93.412 47.232,93.352 47.371,93.294 47.428 C 93.237 47.486,93.230 47.638,93.279 47.766 C 93.329 47.895,93.282 48.000,93.175 48.000 C 93.068 48.000,93.022 48.067,93.072 48.149 C 93.123 48.231,93.064 48.587,92.940 48.941 C 92.817 49.294,92.749 49.677,92.789 49.792 C 92.829 49.906,92.782 50.000,92.686 50.000 C 92.589 50.000,92.554 50.112,92.606 50.250 C 92.659 50.387,92.615 50.500,92.508 50.500 C 92.401 50.500,92.355 50.566,92.405 50.648 C 92.522 50.837,91.982 53.065,91.801 53.139 C 91.726 53.170,91.702 53.256,91.748 53.330 C 91.794 53.404,91.722 53.772,91.590 54.149 C 91.457 54.525,91.397 54.833,91.457 54.833 C 91.517 54.833,91.483 54.917,91.380 55.020 C 91.277 55.123,91.232 55.311,91.281 55.437 C 91.329 55.563,91.282 55.667,91.175 55.667 C 91.068 55.667,91.020 55.731,91.069 55.810 C 91.117 55.888,91.083 56.207,90.992 56.518 C 90.902 56.829,90.792 57.279,90.749 57.519 C 90.706 57.758,90.512 58.465,90.319 59.090 C 90.126 59.715,89.942 60.419,89.910 60.655 C 89.878 60.891,89.698 61.527,89.509 62.069 C 89.320 62.611,89.196 63.085,89.233 63.122 C 89.270 63.159,89.129 63.747,88.918 64.428 C 88.708 65.109,88.575 65.667,88.622 65.667 C 88.669 65.667,88.624 65.767,88.522 65.890 C 88.420 66.013,88.374 66.152,88.420 66.198 C 88.466 66.244,88.388 66.610,88.246 67.011 C 88.104 67.413,87.955 68.006,87.913 68.328 C 87.872 68.651,87.762 68.941,87.668 68.972 C 87.574 69.003,87.541 69.099,87.594 69.184 C 87.647 69.270,87.603 69.605,87.496 69.930 C 87.389 70.254,87.285 70.626,87.266 70.755 C 87.247 70.884,87.185 71.037,87.127 71.095 C 87.070 71.152,87.063 71.304,87.113 71.433 C 87.162 71.561,87.115 71.667,87.008 71.667 C 86.901 71.667,86.855 71.734,86.906 71.816 C 86.956 71.897,86.889 72.272,86.756 72.649 C 86.623 73.025,86.564 73.333,86.624 73.333 C 86.684 73.333,86.649 73.417,86.546 73.520 C 86.444 73.623,86.399 73.811,86.448 73.937 C 86.496 74.063,86.448 74.167,86.341 74.167 C 86.234 74.167,86.186 74.230,86.234 74.307 C 86.317 74.441,85.536 77.622,85.205 78.500 C 85.119 78.729,85.081 79.010,85.121 79.125 C 85.161 79.240,85.116 79.333,85.019 79.333 C 84.923 79.333,84.887 79.446,84.940 79.583 C 84.992 79.721,84.961 79.833,84.870 79.833 C 84.778 79.833,84.711 79.927,84.720 80.042 C 84.744 80.358,84.505 81.453,84.130 82.750 C 83.945 83.392,83.759 84.125,83.719 84.381 C 83.678 84.636,83.495 85.273,83.312 85.797 C 83.130 86.321,82.944 87.029,82.901 87.370 C 82.857 87.711,82.715 88.293,82.585 88.662 C 82.455 89.031,82.397 89.333,82.457 89.333 C 82.517 89.333,82.483 89.417,82.380 89.520 C 82.277 89.623,82.232 89.811,82.281 89.937 C 82.329 90.063,82.282 90.167,82.175 90.167 C 82.068 90.167,82.022 90.234,82.072 90.316 C 82.123 90.397,82.056 90.772,81.923 91.149 C 81.790 91.525,81.731 91.833,81.791 91.833 C 81.851 91.833,81.816 91.917,81.713 92.020 C 81.610 92.123,81.566 92.311,81.614 92.437 C 81.663 92.563,81.615 92.667,81.508 92.667 C 81.401 92.667,81.353 92.731,81.401 92.809 C 81.478 92.932,81.137 94.452,80.873 95.167 C 80.822 95.304,80.796 95.510,80.814 95.625 C 80.833 95.740,80.765 95.833,80.664 95.833 C 80.563 95.833,80.522 95.900,80.572 95.982 C 80.623 96.064,80.564 96.420,80.440 96.774 C 80.317 97.127,80.249 97.510,80.289 97.625 C 80.329 97.740,80.282 97.833,80.186 97.833 C 80.089 97.833,80.054 97.946,80.106 98.083 C 80.159 98.221,80.115 98.333,80.008 98.333 C 79.901 98.333,79.852 98.396,79.900 98.473 C 79.947 98.550,79.801 99.318,79.575 100.181 C 79.349 101.044,79.080 102.144,78.976 102.625 C 78.872 103.106,78.718 103.500,78.634 103.500 C 78.549 103.500,78.522 103.567,78.572 103.649 C 78.623 103.731,78.550 104.124,78.409 104.522 C 78.269 104.920,78.119 105.524,78.076 105.864 C 78.033 106.204,77.922 106.685,77.828 106.931 C 77.734 107.177,77.617 107.632,77.568 107.941 C 77.519 108.251,77.308 109.009,77.099 109.627 C 76.890 110.245,76.751 110.844,76.790 110.958 C 76.829 111.073,76.775 111.167,76.671 111.167 C 76.566 111.167,76.522 111.235,76.574 111.318 C 76.625 111.401,76.525 111.926,76.351 112.484 C 76.177 113.043,76.074 113.500,76.121 113.500 C 76.169 113.500,76.124 113.601,76.022 113.724 C 75.920 113.847,75.873 113.984,75.919 114.030 C 75.964 114.075,75.862 114.518,75.693 115.014 C 75.523 115.511,75.417 116.010,75.456 116.125 C 75.496 116.240,75.449 116.333,75.352 116.333 C 75.256 116.333,75.220 116.446,75.273 116.583 C 75.326 116.721,75.282 116.833,75.175 116.833 C 75.068 116.833,75.016 116.891,75.060 116.962 C 75.164 117.130,74.687 119.191,74.489 119.430 C 74.405 119.531,74.374 119.652,74.420 119.698 C 74.466 119.744,74.394 120.093,74.259 120.474 C 74.125 120.855,74.064 121.167,74.124 121.167 C 74.184 121.167,74.149 121.251,74.046 121.354 C 73.944 121.456,73.899 121.644,73.948 121.770 C 73.996 121.897,73.948 122.000,73.841 122.000 C 73.734 122.000,73.688 122.067,73.739 122.149 C 73.790 122.231,73.722 122.607,73.589 122.985 C 73.456 123.362,73.344 123.708,73.340 123.752 C 73.336 123.797,73.328 123.852,73.322 123.875 C 73.316 123.898,73.284 124.117,73.251 124.361 C 73.199 124.757,72.772 126.331,72.536 127.000 C 72.487 127.138,72.463 127.344,72.481 127.458 C 72.499 127.573,72.432 127.667,72.331 127.667 C 72.230 127.667,72.188 127.734,72.239 127.816 C 72.290 127.897,72.230 128.254,72.107 128.607 C 71.984 128.961,71.916 129.344,71.956 129.458 C 71.995 129.573,71.949 129.667,71.852 129.667 C 71.756 129.667,71.720 129.779,71.773 129.917 C 71.826 130.054,71.788 130.167,71.690 130.167 C 71.591 130.167,71.549 130.266,71.595 130.388 C 71.642 130.510,71.600 130.820,71.502 131.077 C 71.404 131.335,71.284 131.801,71.234 132.113 C 71.184 132.425,71.003 133.090,70.831 133.590 C 70.659 134.091,70.566 134.500,70.626 134.500 C 70.685 134.500,70.649 134.584,70.546 134.687 C 70.444 134.790,70.399 134.977,70.448 135.104 C 70.496 135.230,70.448 135.333,70.341 135.333 C 70.234 135.333,70.188 135.400,70.238 135.481 C 70.288 135.562,70.225 135.974,70.098 136.397 C 69.970 136.820,69.905 137.167,69.953 137.167 C 70.001 137.167,69.947 137.279,69.833 137.417 C 69.719 137.554,69.682 137.667,69.750 137.667 C 69.818 137.667,69.791 137.767,69.689 137.890 C 69.586 138.013,69.541 138.152,69.587 138.198 C 69.633 138.244,69.560 138.593,69.426 138.974 C 69.291 139.355,69.231 139.667,69.291 139.667 C 69.351 139.667,69.316 139.751,69.213 139.854 C 69.110 139.956,69.066 140.144,69.114 140.270 C 69.163 140.397,69.115 140.500,69.008 140.500 C 68.901 140.500,68.855 140.567,68.906 140.649 C 68.956 140.731,68.886 141.115,68.749 141.503 C 68.384 142.537,68.399 142.558,69.624 142.767 C 69.876 142.810,70.458 142.970,70.917 143.123 C 71.375 143.276,71.844 143.383,71.958 143.360 C 72.073 143.337,72.167 143.401,72.167 143.503 C 72.167 143.604,72.250 143.635,72.352 143.572 C 72.454 143.509,72.595 143.551,72.666 143.665 C 72.784 143.857,73.135 143.082,73.234 142.412 C 73.253 142.282,73.315 142.129,73.373 142.072 C 73.430 142.014,73.437 141.862,73.387 141.734 C 73.338 141.605,73.385 141.500,73.492 141.500 C 73.599 141.500,73.644 141.431,73.592 141.347 C 73.540 141.263,73.576 140.988,73.672 140.736 C 73.768 140.484,73.873 140.084,73.905 139.847 C 74.019 139.011,74.736 136.416,74.868 136.361 C 74.942 136.330,74.965 136.244,74.919 136.170 C 74.873 136.096,74.944 135.728,75.077 135.351 C 75.210 134.975,75.269 134.667,75.209 134.667 C 75.149 134.667,75.184 134.583,75.287 134.480 C 75.390 134.377,75.434 134.189,75.386 134.063 C 75.337 133.937,75.385 133.833,75.492 133.833 C 75.599 133.833,75.647 133.769,75.598 133.690 C 75.549 133.612,75.584 133.293,75.674 132.982 C 75.765 132.671,75.874 132.221,75.918 131.981 C 75.961 131.742,76.159 131.029,76.358 130.398 C 76.557 129.767,76.712 129.119,76.703 128.958 C 76.695 128.798,76.755 128.667,76.838 128.667 C 76.922 128.667,76.946 128.554,76.894 128.417 C 76.841 128.279,76.885 128.167,76.992 128.167 C 77.099 128.167,77.145 128.100,77.095 128.019 C 77.045 127.938,77.108 127.526,77.236 127.103 C 77.363 126.680,77.428 126.333,77.380 126.333 C 77.332 126.333,77.376 126.233,77.478 126.110 C 77.580 125.987,77.627 125.849,77.581 125.804 C 77.536 125.758,77.645 125.297,77.824 124.777 C 78.003 124.258,78.106 123.833,78.054 123.833 C 78.002 123.833,78.043 123.733,78.145 123.610 C 78.247 123.487,78.293 123.348,78.247 123.302 C 78.201 123.256,78.276 122.898,78.415 122.505 C 78.553 122.113,78.667 121.656,78.667 121.490 C 78.667 121.324,78.754 120.977,78.860 120.719 C 78.967 120.461,79.043 120.199,79.031 120.136 C 79.018 120.073,79.115 119.717,79.246 119.344 C 79.378 118.972,79.436 118.667,79.376 118.667 C 79.316 118.667,79.351 118.583,79.454 118.480 C 79.556 118.377,79.601 118.189,79.552 118.063 C 79.504 117.937,79.552 117.833,79.659 117.833 C 79.766 117.833,79.812 117.766,79.761 117.684 C 79.710 117.603,79.778 117.226,79.911 116.849 C 80.044 116.471,80.156 116.126,80.160 116.081 C 80.164 116.036,80.173 115.981,80.181 115.958 C 80.188 115.935,80.217 115.767,80.244 115.583 C 80.361 114.788,81.080 112.245,81.202 112.194 C 81.275 112.163,81.298 112.078,81.252 112.004 C 81.206 111.929,81.270 111.580,81.393 111.226 C 81.516 110.873,81.584 110.490,81.544 110.375 C 81.505 110.260,81.551 110.167,81.648 110.167 C 81.744 110.167,81.780 110.054,81.727 109.917 C 81.674 109.779,81.718 109.667,81.825 109.667 C 81.932 109.667,81.980 109.602,81.931 109.524 C 81.883 109.445,81.918 109.126,82.009 108.815 C 82.100 108.504,82.216 108.003,82.265 107.701 C 82.315 107.400,82.497 106.743,82.669 106.243 C 82.841 105.743,82.934 105.333,82.874 105.333 C 82.815 105.333,82.851 105.249,82.954 105.146 C 83.056 105.044,83.101 104.856,83.052 104.730 C 83.004 104.603,83.052 104.500,83.159 104.500 C 83.266 104.500,83.312 104.434,83.262 104.353 C 83.212 104.272,83.283 103.840,83.421 103.394 C 83.558 102.948,83.713 102.333,83.765 102.027 C 83.816 101.721,83.962 101.177,84.089 100.818 C 84.215 100.460,84.269 100.167,84.209 100.167 C 84.149 100.167,84.184 100.083,84.287 99.980 C 84.390 99.877,84.434 99.689,84.386 99.563 C 84.337 99.437,84.385 99.333,84.492 99.333 C 84.599 99.333,84.645 99.266,84.594 99.184 C 84.544 99.103,84.614 98.718,84.751 98.330 C 84.888 97.942,85.000 97.489,85.000 97.323 C 85.000 97.157,85.087 96.811,85.194 96.553 C 85.300 96.294,85.377 96.032,85.364 95.969 C 85.351 95.906,85.448 95.550,85.580 95.177 C 85.711 94.805,85.769 94.500,85.709 94.500 C 85.649 94.500,85.684 94.416,85.787 94.313 C 85.890 94.210,85.934 94.023,85.886 93.896 C 85.837 93.770,85.885 93.667,85.992 93.667 C 86.099 93.667,86.145 93.600,86.094 93.518 C 86.044 93.436,86.103 93.080,86.226 92.726 C 86.349 92.373,86.418 91.990,86.378 91.875 C 86.338 91.760,86.391 91.667,86.496 91.667 C 86.601 91.667,86.649 91.606,86.604 91.533 C 86.517 91.393,87.305 88.236,87.714 87.083 C 87.844 86.717,87.918 86.323,87.878 86.208 C 87.838 86.094,87.891 86.000,87.996 86.000 C 88.101 86.000,88.146 85.934,88.096 85.854 C 88.046 85.774,88.125 85.306,88.271 84.814 C 88.417 84.323,88.568 83.732,88.607 83.502 C 88.646 83.272,88.793 82.730,88.934 82.298 C 89.074 81.866,89.221 81.266,89.259 80.965 C 89.297 80.665,89.405 80.393,89.498 80.362 C 89.592 80.330,89.632 80.245,89.587 80.172 C 89.541 80.099,89.608 79.693,89.736 79.269 C 89.863 78.846,89.928 78.500,89.880 78.500 C 89.832 78.500,89.886 78.387,90.000 78.250 C 90.114 78.112,90.165 78.000,90.113 78.000 C 90.061 78.000,90.135 77.606,90.279 77.125 C 90.422 76.644,90.554 76.158,90.571 76.046 C 90.588 75.935,90.648 75.796,90.706 75.739 C 90.763 75.681,90.770 75.529,90.721 75.400 C 90.671 75.272,90.718 75.167,90.825 75.167 C 90.932 75.167,90.977 75.098,90.925 75.014 C 90.873 74.930,90.909 74.655,91.005 74.403 C 91.101 74.150,91.204 73.750,91.233 73.514 C 91.286 73.086,91.781 71.145,91.959 70.667 C 92.011 70.529,92.037 70.323,92.019 70.208 C 92.001 70.094,92.068 70.000,92.169 70.000 C 92.270 70.000,92.312 69.933,92.261 69.851 C 92.210 69.769,92.278 69.394,92.410 69.018 C 92.543 68.641,92.603 68.333,92.543 68.333 C 92.483 68.333,92.517 68.249,92.620 68.146 C 92.723 68.044,92.768 67.856,92.719 67.730 C 92.671 67.603,92.718 67.500,92.825 67.500 C 92.932 67.500,92.982 67.440,92.937 67.366 C 92.851 67.226,93.638 64.070,94.047 62.917 C 94.177 62.550,94.251 62.156,94.211 62.042 C 94.171 61.927,94.225 61.833,94.329 61.833 C 94.434 61.833,94.481 61.770,94.433 61.693 C 94.385 61.615,94.424 61.268,94.520 60.922 C 94.616 60.575,94.723 60.141,94.758 59.956 C 94.794 59.772,94.946 59.200,95.097 58.685 C 95.248 58.171,95.394 57.637,95.423 57.500 C 95.451 57.362,95.489 57.212,95.506 57.167 C 95.524 57.121,95.549 57.008,95.562 56.917 C 95.596 56.676,96.185 54.463,96.294 54.167 C 96.345 54.029,96.376 53.865,96.363 53.802 C 96.351 53.740,96.448 53.383,96.580 53.011 C 96.711 52.638,96.769 52.333,96.709 52.333 C 96.649 52.333,96.684 52.249,96.787 52.146 C 96.890 52.044,96.934 51.856,96.886 51.730 C 96.837 51.603,96.885 51.500,96.992 51.500 C 97.099 51.500,97.145 51.433,97.094 51.351 C 97.044 51.269,97.111 50.894,97.244 50.518 C 97.377 50.141,97.436 49.833,97.376 49.833 C 97.316 49.833,97.351 49.749,97.454 49.646 C 97.556 49.544,97.601 49.356,97.552 49.230 C 97.504 49.103,97.539 49.000,97.630 49.000 C 97.722 49.000,97.786 48.906,97.773 48.792 C 97.736 48.459,98.373 45.926,98.517 45.829 C 98.769 45.661,98.369 45.292,97.936 45.292 C 97.696 45.292,97.500 45.222,97.500 45.136 C 97.500 45.050,97.433 45.022,97.351 45.072 C 97.269 45.123,96.893 45.055,96.515 44.922 C 96.138 44.789,95.792 44.677,95.748 44.673 C 95.703 44.670,95.648 44.661,95.625 44.654 C 95.602 44.647,95.461 44.617,95.312 44.588 C 95.163 44.559,94.798 44.482,94.500 44.417 C 94.150 44.340,93.995 44.357,94.062 44.466 M162.500 59.985 C 162.821 59.987,163.608 60.079,164.250 60.188 C 164.892 60.298,165.546 60.380,165.705 60.371 C 165.864 60.362,166.032 60.418,166.080 60.495 C 166.128 60.572,166.317 60.596,166.500 60.548 C 166.694 60.498,166.833 60.543,166.833 60.657 C 166.833 60.765,166.910 60.806,167.003 60.748 C 167.097 60.690,167.429 60.727,167.741 60.830 C 168.053 60.933,168.508 61.054,168.752 61.098 C 168.997 61.142,169.509 61.295,169.890 61.436 C 170.271 61.578,170.752 61.734,170.958 61.783 C 171.165 61.832,171.333 61.943,171.333 62.029 C 171.333 62.116,171.408 62.140,171.500 62.084 C 171.591 62.027,171.872 62.091,172.125 62.226 C 172.377 62.360,173.296 62.823,174.167 63.253 C 177.697 64.998,181.742 68.557,183.833 71.755 C 185.125 73.731,187.009 77.341,187.093 78.000 C 187.099 78.046,187.230 78.373,187.384 78.726 C 187.538 79.080,187.627 79.429,187.581 79.503 C 187.535 79.578,187.569 79.663,187.656 79.694 C 187.743 79.725,187.852 79.938,187.899 80.167 C 187.946 80.396,188.100 80.948,188.240 81.394 C 188.381 81.840,188.455 82.272,188.405 82.353 C 188.355 82.434,188.388 82.500,188.480 82.500 C 188.571 82.500,188.638 82.631,188.629 82.792 C 188.619 82.952,188.728 83.608,188.871 84.250 C 189.014 84.892,189.140 85.529,189.152 85.667 C 189.164 85.804,189.205 86.179,189.244 86.500 C 189.610 89.523,189.700 94.059,189.445 96.667 C 189.368 97.446,189.312 98.263,189.320 98.483 C 189.327 98.702,189.252 98.980,189.152 99.100 C 189.053 99.220,189.017 99.393,189.073 99.483 C 189.129 99.574,189.048 100.196,188.893 100.866 C 188.738 101.535,188.619 102.215,188.629 102.375 C 188.638 102.535,188.578 102.667,188.495 102.667 C 188.412 102.667,188.387 102.779,188.440 102.917 C 188.492 103.054,188.471 103.167,188.393 103.167 C 188.314 103.167,188.238 103.335,188.224 103.542 C 188.175 104.255,187.806 105.500,187.643 105.500 C 187.554 105.500,187.522 105.567,187.572 105.649 C 187.623 105.731,187.539 106.087,187.386 106.441 C 187.233 106.794,187.090 107.177,187.069 107.292 C 187.001 107.654,185.465 110.737,185.201 111.042 C 185.062 111.202,185.002 111.333,185.067 111.333 C 185.315 111.333,182.833 114.792,181.673 116.064 C 180.807 117.014,179.104 118.667,178.991 118.667 C 178.937 118.667,178.636 118.900,178.322 119.185 C 177.192 120.210,174.467 121.912,174.271 121.716 C 174.214 121.658,174.167 121.690,174.167 121.785 C 174.167 121.965,173.182 122.444,172.958 122.373 C 172.890 122.351,172.833 122.399,172.833 122.480 C 172.833 122.613,170.808 123.457,170.707 123.366 C 170.683 123.344,170.437 123.444,170.160 123.587 C 169.883 123.730,169.590 123.806,169.509 123.756 C 169.428 123.706,169.336 123.741,169.305 123.835 C 169.274 123.929,169.024 124.034,168.749 124.069 C 168.475 124.104,167.827 124.256,167.311 124.406 C 166.794 124.556,166.306 124.668,166.227 124.653 C 166.148 124.639,166.046 124.646,166.000 124.668 C 165.954 124.691,165.729 124.734,165.500 124.763 C 165.271 124.793,164.858 124.858,164.583 124.907 C 162.206 125.337,157.518 125.332,155.083 124.898 C 154.808 124.849,154.396 124.786,154.167 124.759 C 153.938 124.732,153.712 124.691,153.667 124.669 C 153.621 124.647,153.452 124.642,153.292 124.658 C 153.131 124.674,153.000 124.603,153.000 124.501 C 153.000 124.398,152.936 124.353,152.857 124.402 C 152.778 124.451,152.460 124.413,152.149 124.319 C 151.838 124.225,151.441 124.117,151.267 124.079 C 150.807 123.978,149.777 123.639,149.583 123.524 C 149.492 123.470,149.312 123.410,149.183 123.391 C 149.055 123.371,148.887 123.257,148.811 123.136 C 148.734 123.015,148.671 122.970,148.669 123.036 C 148.661 123.442,145.331 121.556,143.417 120.059 C 141.129 118.272,137.833 114.717,137.833 114.038 C 137.833 113.954,137.683 113.749,137.500 113.583 C 137.317 113.417,137.167 113.211,137.167 113.125 C 137.167 113.039,137.012 112.750,136.822 112.484 C 136.632 112.218,136.539 111.999,136.614 111.997 C 136.689 111.996,136.667 111.940,136.565 111.872 C 136.317 111.708,135.790 110.667,135.954 110.664 C 136.025 110.663,136.008 110.606,135.917 110.539 C 135.542 110.264,134.445 107.723,134.596 107.479 C 134.646 107.399,134.594 107.333,134.482 107.333 C 134.370 107.333,134.322 107.289,134.376 107.235 C 134.431 107.180,134.330 106.799,134.154 106.386 C 133.977 105.974,133.874 105.568,133.926 105.485 C 133.978 105.402,133.932 105.333,133.825 105.333 C 133.718 105.333,133.671 105.228,133.721 105.100 C 133.770 104.971,133.763 104.819,133.706 104.761 C 133.648 104.704,133.586 104.551,133.567 104.422 C 133.548 104.292,133.445 103.921,133.338 103.597 C 133.231 103.272,133.190 102.930,133.248 102.837 C 133.306 102.743,133.278 102.667,133.187 102.667 C 133.095 102.667,133.023 102.535,133.025 102.375 C 133.027 102.215,132.983 101.858,132.927 101.583 C 132.539 99.675,132.482 99.287,132.562 99.078 C 132.612 98.950,132.578 98.798,132.488 98.743 C 132.292 98.621,132.297 98.813,132.304 92.583 C 132.311 86.311,132.305 86.537,132.494 86.421 C 132.581 86.367,132.612 86.217,132.562 86.088 C 132.513 85.959,132.558 85.439,132.664 84.931 C 132.769 84.424,132.875 83.819,132.900 83.587 C 132.925 83.356,132.990 83.121,133.044 83.067 C 133.099 83.012,133.103 82.862,133.054 82.734 C 133.005 82.605,133.045 82.500,133.144 82.500 C 133.242 82.500,133.284 82.398,133.235 82.272 C 133.187 82.147,133.290 81.641,133.463 81.147 C 133.636 80.654,133.747 80.156,133.709 80.042 C 133.670 79.927,133.725 79.833,133.829 79.833 C 133.934 79.833,133.978 79.766,133.928 79.684 C 133.877 79.602,133.955 79.250,134.100 78.902 C 134.246 78.553,134.392 78.129,134.425 77.958 C 134.764 76.195,137.362 71.424,139.258 69.083 C 140.374 67.705,143.155 65.055,143.537 65.005 C 143.603 64.997,143.901 64.767,144.199 64.495 C 144.497 64.223,144.804 64.000,144.882 64.000 C 144.959 64.000,145.261 63.826,145.553 63.612 C 146.631 62.824,149.995 61.309,151.168 61.083 C 151.381 61.042,151.899 60.895,152.319 60.755 C 152.739 60.616,153.423 60.470,153.837 60.432 C 154.252 60.393,155.065 60.276,155.644 60.171 C 156.223 60.066,156.907 60.026,157.166 60.083 C 157.440 60.143,157.683 60.109,157.750 60.000 C 157.829 59.872,158.496 59.840,159.891 59.898 C 161.005 59.944,162.179 59.983,162.500 59.985 M290.500 59.982 C 290.867 59.992,292.650 60.238,293.833 60.442 C 294.063 60.482,294.381 60.516,294.542 60.517 C 294.702 60.519,294.833 60.595,294.833 60.687 C 294.833 60.778,294.898 60.813,294.976 60.765 C 295.055 60.716,295.374 60.754,295.685 60.848 C 295.996 60.942,296.438 61.057,296.667 61.103 C 296.896 61.149,297.108 61.257,297.139 61.344 C 297.170 61.431,297.256 61.465,297.330 61.419 C 297.404 61.373,297.754 61.456,298.107 61.604 C 298.461 61.752,298.787 61.870,298.833 61.866 C 299.132 61.843,301.996 63.478,303.740 64.667 C 305.339 65.757,307.898 68.227,308.833 69.584 C 310.326 71.750,311.211 73.146,311.552 73.874 C 312.442 75.775,312.718 76.425,312.720 76.625 C 312.721 76.740,312.785 76.833,312.861 76.833 C 312.938 76.833,313.000 76.936,313.000 77.061 C 313.000 77.186,313.143 77.655,313.317 78.103 C 313.916 79.640,314.895 83.432,314.753 83.662 C 314.702 83.744,314.736 83.857,314.828 83.913 C 314.920 83.970,314.990 84.182,314.985 84.383 C 314.979 84.585,315.018 85.050,315.071 85.417 C 315.442 87.964,315.505 88.490,315.510 89.083 C 315.513 89.450,315.553 90.938,315.599 92.390 C 315.657 94.194,315.625 95.100,315.498 95.252 C 315.390 95.383,315.358 95.712,315.421 96.050 C 315.481 96.366,315.448 97.178,315.349 97.854 C 315.250 98.530,315.125 99.383,315.071 99.750 C 315.018 100.117,314.979 100.582,314.985 100.783 C 314.990 100.985,314.920 101.197,314.828 101.253 C 314.736 101.310,314.702 101.422,314.751 101.501 C 314.800 101.581,314.693 102.176,314.514 102.823 C 314.335 103.470,314.217 104.000,314.252 104.000 C 314.287 104.000,314.169 104.424,313.991 104.943 C 313.813 105.461,313.667 106.018,313.667 106.181 C 313.667 106.343,313.573 106.575,313.458 106.696 C 313.344 106.818,313.244 106.992,313.236 107.083 C 313.190 107.622,312.933 108.333,312.785 108.333 C 312.689 108.333,312.655 108.377,312.709 108.431 C 312.821 108.543,311.659 111.220,311.462 111.306 C 311.391 111.336,311.333 111.457,311.333 111.575 C 311.333 111.692,311.178 111.986,310.988 112.228 C 310.798 112.469,310.686 112.667,310.739 112.667 C 310.833 112.667,309.597 114.559,309.254 114.940 C 309.160 115.044,308.933 115.341,308.750 115.599 C 307.557 117.277,302.849 121.614,302.828 121.054 C 302.825 120.978,302.747 121.048,302.653 121.208 C 302.560 121.369,302.384 121.500,302.262 121.500 C 302.140 121.500,301.945 121.616,301.827 121.758 C 301.656 121.964,301.585 121.972,301.476 121.800 C 301.371 121.634,301.338 121.646,301.336 121.850 C 301.333 122.108,299.208 123.222,298.718 123.222 C 298.598 123.222,298.500 123.275,298.500 123.340 C 298.500 123.445,297.701 123.698,297.250 123.736 C 297.158 123.744,297.046 123.797,297.000 123.855 C 296.864 124.026,294.322 124.680,294.167 124.583 C 294.088 124.534,293.977 124.570,293.920 124.661 C 293.863 124.753,293.652 124.822,293.450 124.815 C 293.248 124.807,292.896 124.847,292.667 124.904 C 290.922 125.331,285.483 125.329,283.083 124.900 C 282.808 124.851,282.418 124.814,282.217 124.819 C 282.015 124.824,281.809 124.761,281.758 124.680 C 281.708 124.598,281.516 124.570,281.333 124.618 C 281.150 124.666,281.000 124.624,281.000 124.525 C 281.000 124.425,280.900 124.382,280.779 124.429 C 280.657 124.475,280.347 124.434,280.089 124.336 C 279.832 124.238,279.350 124.115,279.019 124.063 C 278.688 124.011,278.154 123.856,277.833 123.720 C 277.512 123.584,277.106 123.443,276.929 123.407 C 276.752 123.371,276.565 123.283,276.512 123.212 C 276.460 123.141,276.342 123.079,276.250 123.074 C 275.885 123.054,275.167 122.790,275.167 122.676 C 275.167 122.610,275.066 122.556,274.943 122.556 C 274.566 122.556,271.841 120.998,270.350 119.930 C 268.928 118.912,268.845 118.841,267.211 117.250 C 265.691 115.770,262.833 112.174,262.833 111.741 C 262.833 111.682,262.678 111.417,262.489 111.151 C 262.299 110.884,262.205 110.666,262.280 110.664 C 262.355 110.663,262.333 110.606,262.232 110.539 C 261.983 110.375,261.457 109.334,261.621 109.331 C 261.692 109.329,261.670 109.273,261.573 109.206 C 261.213 108.957,259.430 104.248,259.594 103.982 C 259.645 103.900,259.599 103.833,259.492 103.833 C 259.385 103.833,259.338 103.728,259.387 103.600 C 259.437 103.471,259.430 103.319,259.373 103.261 C 259.315 103.204,259.252 103.065,259.232 102.954 C 259.211 102.842,259.075 102.247,258.929 101.631 C 258.782 101.016,258.672 100.454,258.684 100.381 C 258.696 100.309,258.692 100.212,258.675 100.167 C 258.658 100.121,258.613 99.821,258.574 99.500 C 258.536 99.179,258.421 98.406,258.319 97.782 C 258.217 97.158,258.181 96.395,258.238 96.087 C 258.299 95.764,258.271 95.481,258.172 95.420 C 258.065 95.354,258.000 94.278,258.000 92.583 C 258.000 90.889,258.065 89.813,258.172 89.747 C 258.270 89.686,258.299 89.404,258.241 89.091 C 258.150 88.610,258.223 87.882,258.600 85.500 C 258.651 85.179,258.691 84.787,258.690 84.628 C 258.689 84.470,258.759 84.296,258.847 84.242 C 258.934 84.188,258.963 84.076,258.912 83.992 C 258.860 83.909,258.905 83.521,259.012 83.129 C 259.118 82.737,259.228 82.304,259.257 82.167 C 259.285 82.029,259.322 81.879,259.340 81.833 C 259.358 81.787,259.364 81.695,259.354 81.627 C 259.343 81.559,259.516 81.022,259.738 80.433 C 259.959 79.845,260.096 79.319,260.043 79.265 C 259.989 79.211,260.036 79.167,260.149 79.167 C 260.261 79.167,260.313 79.102,260.265 79.024 C 260.192 78.906,260.493 78.103,261.447 75.875 C 261.496 75.760,261.590 75.667,261.657 75.667 C 261.723 75.667,261.778 75.564,261.778 75.440 C 261.778 75.001,263.646 71.964,264.867 70.417 C 266.160 68.778,269.490 65.500,269.861 65.500 C 269.945 65.500,270.169 65.356,270.358 65.179 C 270.786 64.781,272.509 63.709,272.839 63.637 C 272.973 63.607,273.121 63.537,273.167 63.481 C 273.277 63.345,276.111 61.980,276.376 61.935 C 276.490 61.915,277.012 61.736,277.537 61.537 C 278.061 61.338,278.686 61.139,278.925 61.096 C 279.163 61.053,279.614 60.933,279.926 60.830 C 280.238 60.727,280.570 60.690,280.663 60.748 C 280.757 60.806,280.833 60.769,280.833 60.666 C 280.833 60.563,280.965 60.492,281.125 60.509 C 281.285 60.525,281.454 60.523,281.500 60.505 C 281.546 60.487,281.733 60.452,281.917 60.427 C 282.100 60.402,282.833 60.291,283.547 60.179 C 284.260 60.067,285.059 60.023,285.322 60.081 C 285.606 60.143,285.848 60.110,285.917 60.000 C 285.995 59.873,286.668 59.839,288.057 59.893 C 289.172 59.936,290.271 59.976,290.500 59.982 M44.841 75.492 C 44.708 75.576,44.539 75.608,44.466 75.563 C 44.393 75.517,44.333 75.541,44.333 75.616 C 44.333 75.758,43.426 76.209,43.232 76.164 C 43.171 76.150,43.075 76.203,43.019 76.282 C 42.963 76.361,42.054 76.849,41.000 77.366 C 39.946 77.883,38.090 78.797,36.875 79.396 C 35.660 79.994,34.667 80.445,34.667 80.398 C 34.667 80.350,34.455 80.461,34.197 80.645 C 33.938 80.829,33.619 81.003,33.488 81.032 C 33.357 81.060,33.212 81.127,33.167 81.181 C 33.050 81.317,28.294 83.630,27.995 83.696 C 27.860 83.726,27.712 83.787,27.667 83.833 C 27.442 84.058,26.500 84.502,26.497 84.384 C 26.496 84.310,26.440 84.330,26.372 84.427 C 26.270 84.576,19.085 88.222,18.833 88.254 C 18.787 88.260,18.281 88.501,17.708 88.790 C 17.135 89.080,16.666 89.264,16.664 89.200 C 16.663 89.136,16.606 89.164,16.539 89.263 C 16.438 89.412,9.304 93.047,9.009 93.100 C 8.958 93.109,8.599 93.259,8.210 93.433 L 7.503 93.750 7.502 96.038 L 7.500 98.327 7.917 98.432 C 8.146 98.489,8.333 98.616,8.333 98.713 C 8.333 98.810,8.374 98.848,8.424 98.798 C 8.511 98.711,26.502 107.656,26.893 107.981 C 26.998 108.067,27.140 108.144,27.209 108.151 C 27.278 108.159,28.253 108.630,29.376 109.199 C 30.498 109.767,31.476 110.237,31.548 110.241 C 31.620 110.246,31.750 110.362,31.837 110.500 C 31.924 110.638,31.996 110.690,31.997 110.616 C 32.000 110.462,33.020 110.997,33.206 111.250 C 33.273 111.342,33.329 111.367,33.331 111.307 C 33.332 111.246,35.955 112.502,39.159 114.098 C 42.363 115.694,45.047 117.000,45.123 117.000 C 45.264 117.000,47.054 112.998,46.956 112.901 C 46.885 112.829,43.107 110.942,43.000 110.924 C 42.954 110.917,41.717 110.317,40.250 109.592 C 38.783 108.866,37.546 108.268,37.500 108.261 C 37.242 108.225,34.397 106.749,34.294 106.597 C 34.227 106.498,34.171 106.477,34.169 106.551 C 34.168 106.625,33.960 106.572,33.708 106.434 C 33.456 106.295,32.162 105.662,30.833 105.026 C 28.653 103.983,22.904 101.209,21.000 100.282 C 20.587 100.081,20.204 99.854,20.148 99.777 C 20.092 99.701,19.979 99.634,19.898 99.630 C 19.637 99.615,18.921 99.263,18.794 99.087 C 18.727 98.993,18.671 98.974,18.669 99.044 C 18.668 99.113,18.048 98.855,17.292 98.469 C 16.535 98.083,15.879 97.760,15.833 97.751 C 15.787 97.743,15.487 97.592,15.167 97.417 C 14.846 97.241,14.546 97.093,14.500 97.087 C 14.232 97.055,12.333 96.087,12.333 95.982 C 12.333 95.913,12.502 95.803,12.708 95.738 C 12.915 95.673,14.152 95.106,15.459 94.478 C 16.765 93.851,19.615 92.505,21.792 91.488 C 23.969 90.472,26.031 89.497,26.375 89.323 C 26.719 89.148,27.001 89.060,27.003 89.128 C 27.004 89.195,27.060 89.167,27.128 89.065 C 27.222 88.923,28.457 88.275,29.000 88.084 C 29.046 88.067,29.683 87.766,30.417 87.414 C 31.150 87.062,31.787 86.764,31.833 86.751 C 31.879 86.738,32.517 86.434,33.250 86.076 C 33.983 85.718,34.621 85.417,34.667 85.407 C 34.712 85.398,35.688 84.937,36.833 84.383 C 39.002 83.335,41.036 82.370,43.167 81.380 C 45.909 80.106,47.173 79.440,47.028 79.347 C 46.944 79.294,46.708 78.837,46.504 78.333 C 46.300 77.829,45.996 77.154,45.829 76.833 C 45.662 76.512,45.513 76.195,45.498 76.129 C 45.305 75.275,45.258 75.228,44.841 75.492 M353.916 76.125 C 353.753 76.560,353.553 77.003,353.470 77.108 C 353.388 77.213,353.289 77.463,353.251 77.662 C 353.212 77.862,352.999 78.351,352.777 78.748 L 352.373 79.470 353.478 80.024 C 354.086 80.328,354.621 80.616,354.667 80.663 C 354.712 80.711,354.863 80.774,355.000 80.804 C 355.285 80.865,357.373 81.860,357.500 81.995 C 357.546 82.043,357.696 82.108,357.833 82.137 C 358.247 82.226,360.241 83.227,360.372 83.411 C 360.440 83.506,360.496 83.526,360.497 83.455 C 360.499 83.384,360.819 83.493,361.208 83.697 C 361.598 83.901,361.954 84.074,362.000 84.080 C 362.046 84.087,362.683 84.387,363.417 84.748 C 364.150 85.108,364.787 85.408,364.833 85.414 C 364.879 85.421,365.479 85.697,366.167 86.029 C 368.819 87.308,371.920 88.779,372.000 88.794 C 372.046 88.803,372.683 89.107,373.417 89.469 C 374.150 89.831,374.787 90.131,374.833 90.135 C 374.879 90.140,375.517 90.440,376.250 90.802 C 376.983 91.164,377.640 91.468,377.709 91.478 C 377.987 91.516,379.591 92.389,379.706 92.564 C 379.773 92.666,379.829 92.685,379.831 92.606 C 379.832 92.527,380.021 92.585,380.250 92.735 C 380.479 92.885,380.667 92.964,380.667 92.911 C 380.667 92.820,382.318 93.651,382.500 93.833 C 382.546 93.879,382.696 93.941,382.833 93.970 C 383.215 94.052,385.236 95.053,385.352 95.217 C 385.408 95.297,385.483 95.342,385.519 95.318 C 385.628 95.244,387.167 95.871,387.167 95.990 C 387.167 96.051,386.473 96.427,385.625 96.826 C 384.777 97.225,382.977 98.097,381.625 98.764 C 380.273 99.431,379.167 99.942,379.167 99.901 C 379.167 99.860,378.979 99.949,378.750 100.099 C 378.521 100.249,378.332 100.307,378.331 100.228 C 378.329 100.148,378.273 100.168,378.206 100.272 C 378.077 100.470,375.000 102.038,375.000 101.906 C 375.000 101.864,374.701 102.018,374.337 102.248 C 373.972 102.478,373.635 102.667,373.589 102.667 C 373.543 102.667,372.604 103.113,371.503 103.659 C 370.401 104.204,369.500 104.617,369.500 104.577 C 369.500 104.536,369.135 104.727,368.690 105.002 C 368.244 105.276,367.830 105.500,367.769 105.500 C 367.707 105.500,367.135 105.758,366.495 106.074 C 365.856 106.390,365.332 106.596,365.331 106.533 C 365.329 106.469,365.273 106.496,365.206 106.593 C 365.103 106.741,362.253 108.214,362.000 108.250 C 361.954 108.256,361.748 108.356,361.542 108.470 C 361.335 108.585,361.166 108.620,361.164 108.548 C 361.163 108.476,361.106 108.498,361.039 108.596 C 360.938 108.745,356.766 110.882,356.500 110.921 C 356.176 110.969,352.500 112.906,352.500 113.028 C 352.500 113.114,352.610 113.395,352.743 113.654 C 352.877 113.913,352.940 114.171,352.882 114.229 C 352.825 114.286,352.855 114.333,352.950 114.333 C 353.100 114.333,353.785 115.843,353.689 115.962 C 353.625 116.043,354.234 117.000,354.349 117.000 C 354.575 117.000,355.729 116.465,356.354 116.071 C 356.709 115.846,357.000 115.702,357.000 115.750 C 357.000 115.798,357.300 115.648,357.667 115.417 C 358.033 115.185,358.333 115.035,358.333 115.083 C 358.333 115.131,358.633 114.981,359.000 114.750 C 359.367 114.519,359.667 114.369,359.667 114.417 C 359.667 114.465,359.967 114.315,360.333 114.083 C 360.700 113.852,361.000 113.702,361.000 113.750 C 361.000 113.798,361.300 113.648,361.667 113.417 C 362.033 113.185,362.333 113.043,362.333 113.102 C 362.333 113.160,362.431 113.127,362.550 113.028 C 362.863 112.768,366.667 110.837,366.667 110.938 C 366.667 110.984,366.894 110.861,367.173 110.662 C 367.451 110.464,367.770 110.286,367.881 110.267 C 367.992 110.248,368.346 110.089,368.667 109.915 C 368.988 109.740,369.287 109.591,369.333 109.583 C 369.379 109.576,369.679 109.426,370.000 109.251 C 370.321 109.075,375.383 106.519,381.250 103.571 L 391.917 98.210 391.963 96.046 C 392.001 94.268,391.964 93.844,391.755 93.671 C 391.615 93.554,391.500 93.507,391.500 93.565 C 391.500 93.623,391.200 93.481,390.833 93.250 C 390.467 93.019,390.167 92.869,390.167 92.917 C 390.167 92.965,389.867 92.815,389.500 92.583 C 389.133 92.352,388.833 92.200,388.833 92.247 C 388.833 92.293,387.277 91.555,385.375 90.605 C 383.473 89.656,380.267 88.071,378.250 87.083 C 376.233 86.095,374.528 85.203,374.461 85.101 C 374.394 85.000,374.337 84.972,374.336 85.039 C 374.334 85.107,373.827 84.911,373.208 84.604 C 372.590 84.297,370.433 83.233,368.417 82.240 C 366.400 81.246,364.695 80.354,364.628 80.258 C 364.560 80.162,364.504 80.144,364.503 80.218 C 364.500 80.335,363.558 79.891,363.333 79.667 C 363.287 79.621,363.139 79.559,363.002 79.529 C 362.621 79.444,359.021 77.684,358.303 77.231 C 357.953 77.010,357.667 76.863,357.667 76.905 C 357.667 76.946,356.922 76.610,356.013 76.157 C 354.025 75.167,354.273 75.171,353.916 76.125 " stroke="none" fill="#fbfbfb" fill-rule="evenodd"></path><path id="path1" d="M228.749 11.334 C 228.323 11.805,228.504 11.849,228.952 11.383 C 229.155 11.173,229.261 11.000,229.187 11.000 C 229.112 11.000,228.915 11.150,228.749 11.334 M204.249 69.917 C 204.249 99.800,204.268 112.000,204.292 97.028 C 204.315 82.056,204.315 57.606,204.292 42.695 C 204.268 27.784,204.249 40.033,204.249 69.917 M167.542 16.583 C 167.544 16.950,167.578 17.080,167.618 16.873 C 167.658 16.666,167.656 16.366,167.615 16.206 C 167.573 16.047,167.540 16.217,167.542 16.583 M258.248 38.833 C 258.248 51.254,258.267 56.335,258.292 50.125 C 258.316 43.915,258.316 33.752,258.292 27.542 C 258.267 21.331,258.248 26.412,258.248 38.833 M189.460 42.292 C 189.436 52.719,189.473 61.321,189.542 61.408 C 189.610 61.495,189.667 52.964,189.667 42.450 C 189.667 31.936,189.630 23.333,189.585 23.333 C 189.540 23.333,189.483 31.865,189.460 42.292 M129.579 57.042 L 128.250 58.417 129.625 57.087 C 130.902 55.853,131.076 55.667,130.954 55.667 C 130.929 55.667,130.311 56.285,129.579 57.042 M262.076 56.750 C 261.560 57.254,261.203 57.667,261.283 57.667 C 261.363 57.667,261.835 57.254,262.333 56.750 C 262.831 56.246,263.188 55.833,263.127 55.833 C 263.065 55.833,262.592 56.246,262.076 56.750 M317.917 57.000 C 319.024 58.115,319.572 58.566,318.901 57.808 C 318.314 57.145,316.956 55.833,316.857 55.833 C 316.803 55.833,317.280 56.358,317.917 57.000 M159.460 60.118 C 159.668 60.158,159.968 60.156,160.127 60.115 C 160.286 60.073,160.117 60.040,159.750 60.042 C 159.383 60.044,159.253 60.078,159.460 60.118 M287.627 60.118 C 287.834 60.158,288.134 60.156,288.294 60.115 C 288.453 60.073,288.283 60.040,287.917 60.042 C 287.550 60.044,287.420 60.078,287.627 60.118 M141.077 67.200 C 140.622 67.676,140.395 67.957,140.572 67.825 C 141.121 67.413,142.135 66.333,141.972 66.333 C 141.935 66.333,141.532 66.723,141.077 67.200 M179.681 67.292 C 179.782 67.452,180.064 67.726,180.308 67.901 C 180.658 68.153,180.631 68.093,180.176 67.610 C 179.544 66.939,179.401 66.847,179.681 67.292 M132.217 91.000 C 132.217 91.504,132.248 91.710,132.286 91.458 C 132.324 91.206,132.324 90.794,132.286 90.542 C 132.248 90.290,132.217 90.496,132.217 91.000 M116.712 91.500 C 116.712 91.912,116.745 92.081,116.784 91.875 C 116.824 91.669,116.824 91.331,116.784 91.125 C 116.745 90.919,116.712 91.087,116.712 91.500 M258.228 92.583 C 258.228 93.500,258.256 93.854,258.290 93.369 C 258.324 92.885,258.323 92.135,258.289 91.703 C 258.255 91.270,258.227 91.667,258.228 92.583 M315.390 92.583 C 315.391 93.317,315.420 93.596,315.456 93.204 C 315.491 92.812,315.490 92.212,315.454 91.871 C 315.419 91.529,315.390 91.850,315.390 92.583 M331.042 92.583 C 331.044 92.950,331.078 93.080,331.118 92.873 C 331.158 92.666,331.156 92.366,331.115 92.206 C 331.073 92.047,331.040 92.217,331.042 92.583 M116.714 93.583 C 116.716 94.042,116.748 94.209,116.786 93.956 C 116.825 93.703,116.824 93.328,116.784 93.123 C 116.744 92.918,116.713 93.125,116.714 93.583 M132.218 94.083 C 132.219 94.633,132.250 94.838,132.287 94.539 C 132.325 94.239,132.324 93.789,132.286 93.539 C 132.248 93.288,132.217 93.533,132.218 94.083 M266.532 116.486 C 266.570 116.615,266.785 116.836,267.009 116.975 C 267.325 117.172,267.360 117.176,267.167 116.990 C 267.029 116.858,266.814 116.638,266.689 116.500 C 266.506 116.299,266.475 116.296,266.532 116.486 M190.405 127.167 C 190.405 129.321,190.429 130.202,190.458 129.125 C 190.487 128.048,190.487 126.285,190.458 125.208 C 190.429 124.131,190.405 125.013,190.405 127.167 M186.869 127.380 C 186.391 127.864,186.000 128.308,186.000 128.367 C 186.000 128.473,187.212 127.302,187.645 126.777 C 188.105 126.221,187.717 126.522,186.869 127.380 M129.500 128.083 C 130.091 128.679,130.611 129.167,130.657 129.167 C 130.703 129.167,130.257 128.679,129.667 128.083 C 129.076 127.487,128.555 127.000,128.510 127.000 C 128.464 127.000,128.909 127.487,129.500 128.083 M317.416 128.668 C 316.990 129.138,317.171 129.182,317.619 128.717 C 317.822 128.506,317.927 128.333,317.853 128.333 C 317.779 128.333,317.582 128.484,317.416 128.668 M229.205 130.167 C 229.205 130.487,229.240 130.619,229.282 130.458 C 229.323 130.298,229.323 130.035,229.282 129.875 C 229.240 129.715,229.205 129.846,229.205 130.167 M218.379 130.833 C 218.379 131.246,218.411 131.415,218.451 131.208 C 218.491 131.002,218.491 130.665,218.451 130.458 C 218.411 130.252,218.379 130.421,218.379 130.833 M229.205 131.500 C 229.205 131.821,229.240 131.952,229.282 131.792 C 229.323 131.631,229.323 131.369,229.282 131.208 C 229.240 131.048,229.205 131.179,229.205 131.500 M156.544 139.620 C 156.797 139.658,157.172 139.657,157.377 139.617 C 157.582 139.578,157.375 139.546,156.917 139.548 C 156.458 139.549,156.291 139.581,156.544 139.620 M159.960 139.618 C 160.168 139.658,160.468 139.656,160.627 139.615 C 160.786 139.573,160.617 139.540,160.250 139.542 C 159.883 139.544,159.753 139.578,159.960 139.618 M287.125 139.618 C 287.331 139.657,287.669 139.657,287.875 139.618 C 288.081 139.578,287.912 139.545,287.500 139.545 C 287.087 139.545,286.919 139.578,287.125 139.618 M290.377 139.620 C 290.631 139.658,291.006 139.657,291.211 139.617 C 291.416 139.578,291.208 139.546,290.750 139.548 C 290.292 139.549,290.124 139.581,290.377 139.620 " stroke="none" fill="#536273" fill-rule="evenodd"></path><path id="path2" d="M258.081 39.083 C 258.081 51.458,258.101 56.545,258.125 50.388 C 258.149 44.231,258.149 34.106,258.125 27.888 C 258.101 21.670,258.081 26.708,258.081 39.083 M177.053 23.292 C 179.420 23.318,183.245 23.318,185.553 23.292 C 187.861 23.265,185.925 23.244,181.250 23.244 C 176.575 23.244,174.686 23.265,177.053 23.292 M237.875 23.290 L 243.333 23.338 243.375 73.752 L 243.417 124.167 243.417 73.708 L 243.417 23.250 237.917 23.246 L 232.417 23.243 237.875 23.290 M258.045 92.500 C 258.045 92.912,258.078 93.081,258.118 92.875 C 258.157 92.669,258.157 92.331,258.118 92.125 C 258.078 91.919,258.045 92.087,258.045 92.500 M260.500 127.219 C 260.500 127.248,260.744 127.491,261.042 127.760 L 261.583 128.250 261.094 127.708 C 260.638 127.203,260.500 127.090,260.500 127.219 M157.875 139.615 C 158.035 139.657,158.298 139.657,158.458 139.615 C 158.619 139.573,158.487 139.539,158.167 139.539 C 157.846 139.539,157.715 139.573,157.875 139.615 M289.208 139.615 C 289.369 139.657,289.631 139.657,289.792 139.615 C 289.952 139.573,289.821 139.539,289.500 139.539 C 289.179 139.539,289.048 139.573,289.208 139.615 " stroke="none" fill="#8c94a4" fill-rule="evenodd"></path><path id="path3" d="M172.865 9.975 C 172.654 10.035,178.575 10.083,186.023 10.083 C 193.471 10.083,199.344 10.036,199.074 9.978 C 198.423 9.838,173.360 9.835,172.865 9.975 M237.887 9.958 C 240.621 9.984,245.046 9.984,247.720 9.958 C 250.395 9.932,248.158 9.911,242.750 9.911 C 237.342 9.911,235.153 9.933,237.887 9.958 M229.667 10.750 C 229.438 10.881,229.325 10.988,229.417 10.988 C 229.508 10.988,229.771 10.881,230.000 10.750 C 230.229 10.619,230.342 10.512,230.250 10.512 C 230.158 10.512,229.896 10.619,229.667 10.750 M169.167 11.250 C 169.049 11.392,168.990 11.546,169.036 11.591 C 169.082 11.637,169.216 11.559,169.333 11.417 C 169.451 11.275,169.510 11.121,169.464 11.075 C 169.418 11.029,169.284 11.108,169.167 11.250 M203.794 13.755 C 203.837 13.981,203.931 14.167,204.004 14.167 C 204.158 14.167,204.016 13.530,203.837 13.419 C 203.770 13.377,203.750 13.529,203.794 13.755 M157.208 45.615 C 157.369 45.657,157.631 45.657,157.792 45.615 C 157.952 45.573,157.821 45.539,157.500 45.539 C 157.179 45.539,157.048 45.573,157.208 45.615 M159.960 45.618 C 160.168 45.658,160.468 45.656,160.627 45.615 C 160.786 45.573,160.617 45.540,160.250 45.542 C 159.883 45.544,159.753 45.578,159.960 45.618 M287.208 45.615 C 287.369 45.657,287.631 45.657,287.792 45.615 C 287.952 45.573,287.821 45.539,287.500 45.539 C 287.179 45.539,287.048 45.573,287.208 45.615 M289.875 45.615 C 290.035 45.657,290.298 45.657,290.458 45.615 C 290.619 45.573,290.487 45.539,290.167 45.539 C 289.846 45.539,289.715 45.573,289.875 45.615 M167.420 46.484 C 167.510 46.571,167.808 46.696,168.083 46.762 C 168.728 46.915,168.583 46.773,167.837 46.520 C 167.518 46.412,167.331 46.396,167.420 46.484 M305.000 48.484 C 305.000 48.623,305.684 48.872,305.785 48.770 C 305.812 48.743,305.647 48.635,305.417 48.531 C 305.188 48.426,305.000 48.405,305.000 48.484 M131.500 55.354 C 130.919 55.863,130.919 55.864,131.453 55.508 C 131.748 55.312,132.034 55.080,132.088 54.992 C 132.249 54.732,132.116 54.814,131.500 55.354 M317.583 56.833 C 318.312 57.567,318.943 58.167,318.985 58.167 C 319.127 58.167,316.584 55.542,316.421 55.521 C 316.331 55.510,316.854 56.100,317.583 56.833 M186.249 57.708 C 186.697 58.235,187.093 58.667,187.129 58.667 C 187.243 58.667,186.221 57.431,185.818 57.083 C 185.607 56.900,185.800 57.181,186.249 57.708 M188.398 60.216 C 188.751 60.647,189.075 61.000,189.117 61.000 C 189.231 61.000,188.176 59.692,187.949 59.552 C 187.843 59.486,188.045 59.785,188.398 60.216 M157.750 60.000 C 157.633 60.190,158.171 60.190,158.917 60.000 C 159.365 59.886,159.337 59.871,158.635 59.853 C 158.205 59.842,157.807 59.908,157.750 60.000 M160.583 60.000 C 161.359 60.197,162.139 60.197,161.833 60.000 C 161.696 59.911,161.246 59.846,160.833 59.856 C 160.149 59.871,160.127 59.884,160.583 60.000 M285.917 60.000 C 285.799 60.190,286.337 60.190,287.083 60.000 C 287.532 59.886,287.503 59.871,286.802 59.853 C 286.371 59.842,285.973 59.908,285.917 60.000 M288.833 60.000 C 289.465 60.202,290.313 60.202,290.000 60.000 C 289.862 59.911,289.450 59.845,289.083 59.852 C 288.505 59.865,288.472 59.884,288.833 60.000 M320.667 60.076 C 320.667 60.143,320.817 60.388,321.000 60.621 C 321.183 60.854,321.333 60.990,321.333 60.924 C 321.333 60.857,321.183 60.612,321.000 60.379 C 320.817 60.146,320.667 60.010,320.667 60.076 M153.333 60.453 C 153.104 60.495,152.842 60.602,152.750 60.693 C 152.561 60.879,153.420 60.713,153.833 60.483 C 154.096 60.336,154.014 60.331,153.333 60.453 M168.667 61.096 C 168.667 61.209,169.532 61.523,169.615 61.441 C 169.653 61.403,169.455 61.292,169.175 61.195 C 168.895 61.097,168.667 61.053,168.667 61.096 M305.903 66.558 C 306.262 66.862,306.815 67.404,307.130 67.763 C 307.553 68.245,307.614 68.283,307.363 67.906 C 306.989 67.347,305.584 65.999,305.379 66.002 C 305.308 66.004,305.544 66.254,305.903 66.558 M180.000 67.417 C 180.311 67.737,180.603 68.000,180.649 68.000 C 180.695 68.000,180.478 67.737,180.167 67.417 C 179.856 67.096,179.564 66.833,179.518 66.833 C 179.472 66.833,179.689 67.096,180.000 67.417 M266.904 68.074 C 266.714 68.263,266.498 68.529,266.424 68.667 C 266.349 68.804,266.539 68.675,266.844 68.380 C 267.150 68.085,267.366 67.819,267.325 67.788 C 267.284 67.757,267.094 67.886,266.904 68.074 M139.347 68.958 C 138.974 69.394,138.668 69.821,138.668 69.907 C 138.667 69.994,138.855 69.806,139.084 69.491 C 139.314 69.175,139.708 68.748,139.959 68.542 C 140.211 68.337,140.329 68.168,140.221 68.167 C 140.114 68.167,139.721 68.523,139.347 68.958 M120.364 71.416 C 120.259 71.646,120.238 71.833,120.317 71.833 C 120.456 71.833,120.705 71.150,120.604 71.048 C 120.576 71.021,120.469 71.186,120.364 71.416 M91.325 72.940 C 91.233 73.182,91.188 73.410,91.226 73.448 C 91.264 73.486,91.375 73.288,91.472 73.009 C 91.689 72.387,91.558 72.326,91.325 72.940 M328.794 76.422 C 328.837 76.648,328.931 76.833,329.004 76.833 C 329.158 76.833,329.016 76.197,328.837 76.086 C 328.770 76.044,328.750 76.195,328.794 76.422 M260.776 77.368 C 260.641 77.886,260.744 77.912,260.969 77.417 C 261.074 77.188,261.095 77.000,261.016 77.000 C 260.937 77.000,260.829 77.165,260.776 77.368 M313.302 78.417 C 313.386 78.600,313.497 78.862,313.548 79.000 C 313.628 79.216,313.642 79.215,313.654 78.990 C 313.661 78.847,313.550 78.585,313.407 78.407 C 313.152 78.089,313.151 78.089,313.302 78.417 M117.020 86.250 C 117.007 86.433,116.957 86.771,116.910 87.000 L 116.824 87.417 117.002 87.008 C 117.101 86.783,117.150 86.445,117.113 86.258 C 117.047 85.925,117.045 85.925,117.020 86.250 M132.271 87.756 C 132.213 87.905,132.174 88.190,132.184 88.389 C 132.195 88.617,132.251 88.536,132.338 88.168 C 132.483 87.548,132.444 87.306,132.271 87.756 M87.286 88.447 C 87.242 88.522,87.160 88.846,87.103 89.167 L 87.001 89.750 87.251 89.098 C 87.474 88.517,87.497 88.091,87.286 88.447 M116.787 88.555 C 116.587 89.062,116.635 89.489,116.850 89.120 C 116.945 88.956,116.996 88.694,116.965 88.536 C 116.912 88.275,116.896 88.276,116.787 88.555 M330.879 89.833 C 330.879 90.246,330.911 90.415,330.951 90.208 C 330.991 90.002,330.991 89.665,330.951 89.458 C 330.911 89.252,330.879 89.421,330.879 89.833 M258.111 89.778 C 258.050 89.839,258.011 90.270,258.023 90.736 L 258.047 91.583 258.163 90.667 C 258.288 89.686,258.283 89.605,258.111 89.778 M315.451 90.857 C 315.553 92.505,315.638 92.673,315.651 91.250 C 315.657 90.608,315.597 89.982,315.518 89.857 C 315.435 89.726,315.407 90.141,315.451 90.857 M189.542 90.583 C 189.544 90.950,189.578 91.080,189.618 90.873 C 189.658 90.666,189.656 90.366,189.615 90.206 C 189.573 90.047,189.540 90.217,189.542 90.583 M315.530 93.667 C 315.511 94.171,315.449 94.771,315.392 95.000 C 315.313 95.316,315.336 95.372,315.486 95.233 C 315.613 95.115,315.662 94.643,315.624 93.900 C 315.568 92.811,315.563 92.799,315.530 93.667 M258.000 94.462 C 258.000 94.931,258.072 95.358,258.159 95.412 C 258.258 95.473,258.281 95.174,258.219 94.630 C 258.089 93.474,258.000 93.406,258.000 94.462 M391.917 96.000 C 391.917 97.266,391.973 98.267,392.042 98.224 C 392.110 98.182,392.167 97.181,392.167 96.000 C 392.167 94.819,392.110 93.818,392.042 93.776 C 391.973 93.733,391.917 94.734,391.917 96.000 M189.542 94.583 C 189.544 94.950,189.578 95.080,189.618 94.873 C 189.658 94.666,189.656 94.366,189.615 94.206 C 189.573 94.047,189.540 94.217,189.542 94.583 M330.879 95.333 C 330.879 95.746,330.911 95.915,330.951 95.708 C 330.991 95.502,330.991 95.165,330.951 94.958 C 330.911 94.752,330.879 94.921,330.879 95.333 M116.672 96.083 C 116.672 96.267,116.744 96.529,116.833 96.667 C 116.967 96.874,116.995 96.859,116.995 96.583 C 116.995 96.400,116.922 96.138,116.833 96.000 C 116.700 95.793,116.672 95.807,116.672 96.083 M85.157 96.609 C 85.065 96.852,85.013 97.124,85.043 97.213 C 85.073 97.303,85.181 97.104,85.283 96.771 C 85.498 96.073,85.406 95.954,85.157 96.609 M132.169 96.847 C 132.171 97.069,132.246 97.362,132.336 97.500 C 132.451 97.676,132.468 97.577,132.392 97.167 C 132.261 96.448,132.166 96.312,132.169 96.847 M116.943 98.417 C 116.999 98.783,117.072 99.115,117.105 99.153 C 117.232 99.296,117.137 98.403,116.992 98.083 C 116.887 97.851,116.872 97.952,116.943 98.417 M79.369 100.442 C 79.266 100.777,79.248 100.983,79.329 100.901 C 79.492 100.734,79.746 99.833,79.629 99.833 C 79.589 99.833,79.472 100.107,79.369 100.442 M29.833 104.583 C 30.063 104.714,30.325 104.822,30.417 104.822 C 30.508 104.822,30.396 104.714,30.167 104.583 C 29.938 104.452,29.675 104.345,29.583 104.345 C 29.492 104.345,29.604 104.452,29.833 104.583 M77.386 108.125 C 77.329 108.285,77.252 108.473,77.214 108.542 C 77.177 108.610,77.218 108.667,77.304 108.667 C 77.390 108.667,77.497 108.479,77.541 108.250 C 77.632 107.771,77.539 107.695,77.386 108.125 M119.028 109.842 C 119.125 110.122,119.236 110.319,119.274 110.282 C 119.356 110.199,119.042 109.333,118.929 109.333 C 118.886 109.333,118.930 109.562,119.028 109.842 M139.318 116.139 C 139.408 116.307,139.613 116.550,139.773 116.680 C 139.953 116.827,139.913 116.710,139.667 116.375 C 139.229 115.777,139.065 115.666,139.318 116.139 M306.410 118.037 C 305.599 118.890,305.948 118.698,306.866 117.786 C 307.286 117.369,307.423 117.167,307.285 117.167 C 307.259 117.167,306.865 117.558,306.410 118.037 M179.700 117.841 C 179.492 118.175,179.497 118.176,179.910 117.906 C 180.382 117.596,180.433 117.500,180.123 117.500 C 180.008 117.500,179.818 117.654,179.700 117.841 M141.667 118.583 C 141.882 118.813,142.086 119.000,142.120 119.000 C 142.259 119.000,141.572 118.177,141.429 118.172 C 141.345 118.169,141.451 118.354,141.667 118.583 M74.536 118.942 C 74.433 119.277,74.415 119.483,74.496 119.401 C 74.659 119.234,74.912 118.333,74.796 118.333 C 74.756 118.333,74.638 118.607,74.536 118.942 M78.824 120.775 C 78.731 121.018,78.680 121.290,78.710 121.380 C 78.740 121.470,78.848 121.271,78.950 120.938 C 79.164 120.239,79.073 120.121,78.824 120.775 M175.000 121.347 L 174.583 121.687 175.125 121.422 C 175.423 121.277,175.667 121.123,175.667 121.079 C 175.667 120.913,175.401 121.020,175.000 121.347 M146.000 121.841 C 146.578 122.234,146.907 122.348,146.500 122.015 C 146.271 121.827,146.008 121.674,145.917 121.673 C 145.825 121.672,145.862 121.748,146.000 121.841 M206.292 124.291 C 207.506 124.320,209.494 124.320,210.708 124.291 C 211.923 124.263,210.929 124.239,208.500 124.239 C 206.071 124.239,205.077 124.263,206.292 124.291 M236.958 124.291 C 238.173 124.320,240.160 124.320,241.375 124.291 C 242.590 124.263,241.596 124.239,239.167 124.239 C 236.737 124.239,235.744 124.263,236.958 124.291 M258.532 125.008 C 258.687 125.098,259.005 125.415,259.238 125.711 C 259.472 126.007,259.664 126.196,259.665 126.131 C 259.668 125.920,258.639 124.833,258.441 124.838 C 258.336 124.841,258.377 124.917,258.532 125.008 M159.121 125.287 C 159.417 125.324,159.942 125.324,160.288 125.288 C 160.634 125.252,160.392 125.222,159.750 125.221 C 159.108 125.221,158.825 125.250,159.121 125.287 M287.288 125.287 C 287.584 125.324,288.109 125.324,288.455 125.288 C 288.800 125.252,288.558 125.222,287.917 125.221 C 287.275 125.221,286.992 125.250,287.288 125.287 M261.250 127.833 C 261.887 128.475,262.445 129.000,262.491 129.000 C 262.537 129.000,262.053 128.475,261.417 127.833 C 260.780 127.192,260.221 126.667,260.176 126.667 C 260.130 126.667,260.613 127.192,261.250 127.833 M130.000 128.417 C 130.311 128.737,130.603 129.000,130.649 129.000 C 130.695 129.000,130.478 128.737,130.167 128.417 C 129.856 128.096,129.564 127.833,129.518 127.833 C 129.472 127.833,129.689 128.096,130.000 128.417 M184.906 129.208 L 184.417 129.750 184.958 129.260 C 185.463 128.804,185.577 128.667,185.448 128.667 C 185.419 128.667,185.175 128.910,184.906 129.208 M172.125 137.115 C 171.965 137.157,171.833 137.263,171.833 137.351 C 171.833 137.444,171.992 137.429,172.208 137.317 C 172.833 136.991,172.810 136.936,172.125 137.115 M200.137 137.458 C 202.549 137.484,206.449 137.484,208.803 137.458 C 211.157 137.432,209.183 137.411,204.417 137.411 C 199.650 137.411,197.724 137.432,200.137 137.458 M238.970 137.458 C 241.383 137.484,245.283 137.484,247.637 137.458 C 249.991 137.432,248.017 137.411,243.250 137.411 C 238.483 137.411,236.557 137.432,238.970 137.458 M73.991 139.273 C 73.899 139.515,73.855 139.744,73.893 139.782 C 73.931 139.819,74.041 139.622,74.139 139.342 C 74.355 138.720,74.225 138.659,73.991 139.273 M293.833 139.341 C 293.651 139.464,293.718 139.480,294.083 139.398 C 294.696 139.261,294.829 139.166,294.403 139.169 C 294.227 139.171,293.971 139.248,293.833 139.341 M161.583 139.500 C 161.452 139.712,161.838 139.712,162.167 139.500 C 162.370 139.369,162.348 139.338,162.052 139.336 C 161.851 139.334,161.640 139.408,161.583 139.500 M285.500 139.500 C 285.828 139.712,286.214 139.712,286.083 139.500 C 286.027 139.408,285.816 139.334,285.615 139.336 C 285.318 139.338,285.297 139.369,285.500 139.500 " stroke="none" fill="#a8b0ba" fill-rule="evenodd"></path><path id="path4" d="M7.398 96.083 C 7.398 97.275,7.425 97.741,7.457 97.118 C 7.489 96.496,7.489 95.521,7.457 94.951 C 7.424 94.382,7.398 94.892,7.398 96.083 " stroke="none" fill="#8c9ca4" fill-rule="evenodd"></path></g></svg>