<svg xmlns="http://www.w3.org/2000/svg" version="1.1" viewBox="114.01 195.16 240.99 85.84"><path d="M 221.250 195.735 C 223.863 195.941, 228.137 195.941, 230.750 195.735 C 233.363 195.529, 231.225 195.360, 226 195.360 C 220.775 195.360, 218.637 195.529, 221.250 195.735 M 253.200 196.200 C 251.880 197.520, 251.559 202.609, 252.750 203.347 C 253.162 203.602, 253.500 202.166, 253.500 200.156 L 253.500 196.500 261.500 195.933 L 269.500 195.367 261.950 195.183 C 257.181 195.068, 253.958 195.442, 253.200 196.200 M 214.384 197.442 C 214.080 198.234, 214.007 199.697, 214.223 200.692 C 214.467 201.821, 214.809 201.279, 215.134 199.250 C 215.678 195.844, 215.325 194.991, 214.384 197.442 M 236.774 232.095 L 237.049 268 240.774 267.840 C 244.466 267.681, 244.471 267.676, 241.250 267.277 L 238 266.873 238 231.996 C 238 212.813, 237.662 196.909, 237.250 196.654 C 236.838 196.399, 236.624 212.347, 236.774 232.095 M 270.763 206.843 C 270.908 212.704, 271.133 219.903, 271.263 222.839 L 271.500 228.178 274 225.346 C 276.121 222.944, 276.158 222.802, 274.250 224.412 L 272 226.310 272 211.714 C 272 203.686, 271.663 196.908, 271.250 196.652 C 270.837 196.395, 270.619 200.981, 270.763 206.843 M 228.215 214.801 L 228 226.102 224.250 223.361 L 220.500 220.621 224.397 224.330 C 226.540 226.370, 228.468 227.866, 228.680 227.653 C 228.892 227.441, 228.923 221.920, 228.748 215.384 L 228.430 203.500 228.215 214.801 M 262 235.500 L 262 267 258.622 267 C 256.765 267, 254.707 267.648, 254.050 268.440 C 252.468 270.346, 253.104 275.239, 255 275.749 C 256.190 276.069, 256.225 275.959, 255.170 275.218 C 254.427 274.695, 253.985 273.007, 254.170 271.391 C 254.470 268.767, 254.892 268.472, 258.750 268.193 L 263 267.885 263 235.943 C 263 218.374, 262.775 204, 262.500 204 C 262.225 204, 262 218.175, 262 235.500 M 168.557 218.908 C 168.249 219.407, 168.457 220.869, 169.021 222.158 C 169.977 224.342, 170.008 224.309, 169.483 221.666 C 169.120 219.837, 169.289 219.060, 169.960 219.475 C 170.532 219.829, 171 219.641, 171 219.059 C 171 217.763, 169.328 217.660, 168.557 218.908 M 191.497 224.137 C 189.531 225.863, 187.454 228.225, 186.881 229.387 C 186.307 230.549, 187.007 230.070, 188.436 228.321 C 189.864 226.573, 192.263 224.225, 193.767 223.103 C 195.270 221.981, 196.178 221.049, 195.785 221.032 C 195.391 221.014, 193.462 222.412, 191.497 224.137 M 167.141 223 C 167.141 223.825, 167.527 225.400, 168 226.500 C 168.542 227.761, 168.859 227.945, 168.859 227 C 168.859 226.175, 168.473 224.600, 168 223.500 C 167.458 222.239, 167.141 222.055, 167.141 223 M 166.141 227 C 166.141 227.825, 166.527 229.400, 167 230.500 C 167.542 231.761, 167.859 231.945, 167.859 231 C 167.859 230.175, 167.473 228.600, 167 227.500 C 166.458 226.239, 166.141 226.055, 166.141 227 M 210.573 227.900 C 213.913 228.320, 217.288 229.030, 218.073 229.478 C 219.221 230.134, 219.259 230.033, 218.265 228.962 C 217.548 228.189, 214.401 227.526, 210.765 227.383 L 204.500 227.136 210.573 227.900 M 287.250 227.716 C 288.762 227.945, 291.238 227.945, 292.750 227.716 C 294.262 227.487, 293.025 227.300, 290 227.300 C 286.975 227.300, 285.738 227.487, 287.250 227.716 M 199.041 230.619 C 195.897 233.264, 193 237.841, 193 240.162 C 193 240.856, 194.012 239.420, 195.250 236.970 C 196.488 234.520, 199.029 231.500, 200.898 230.258 C 202.767 229.016, 203.814 228, 203.225 228 C 202.635 228, 200.753 229.179, 199.041 230.619 M 277.368 232.368 C 274.966 234.771, 273 237.313, 273 238.016 C 273 238.720, 274.023 237.777, 275.274 235.922 C 276.524 234.066, 279.066 231.524, 280.922 230.274 C 282.777 229.023, 283.720 228, 283.016 228 C 282.313 228, 279.771 229.966, 277.368 232.368 M 298.759 229.995 C 300.552 231.088, 302.912 233.448, 304.005 235.241 C 305.098 237.033, 305.994 237.885, 305.996 237.132 C 306.001 235.354, 298.646 227.999, 296.868 228.004 C 296.115 228.006, 296.967 228.902, 298.759 229.995 M 313.139 231.250 C 313.805 232.488, 314.915 235.300, 315.608 237.500 C 316.300 239.700, 316.886 240.600, 316.911 239.500 C 316.960 237.335, 313.469 229, 312.514 229 C 312.192 229, 312.474 230.012, 313.139 231.250 M 164.031 235 C 164.031 235.825, 164.467 237.175, 165 238 C 165.862 239.333, 165.969 239.333, 165.969 238 C 165.969 237.175, 165.533 235.825, 165 235 C 164.138 233.667, 164.031 233.667, 164.031 235 M 124.750 244.560 C 118.838 247.562, 114.007 250.576, 114.015 251.259 C 114.025 252.075, 114.363 251.986, 115 251 C 115.865 249.662, 116.422 250.260, 116.130 252.214 C 116.072 252.607, 116.767 252.643, 117.676 252.294 C 118.777 251.872, 119.089 252.047, 118.612 252.819 C 118.130 253.599, 118.456 253.762, 119.612 253.319 C 120.769 252.875, 121.095 253.038, 120.612 253.819 C 120.130 254.599, 120.456 254.762, 121.612 254.319 C 122.769 253.875, 123.095 254.038, 122.612 254.819 C 122.130 255.599, 122.456 255.762, 123.612 255.319 C 124.769 254.875, 125.095 255.038, 124.612 255.819 C 124.130 256.599, 124.456 256.762, 125.612 256.319 C 126.769 255.875, 127.095 256.038, 126.612 256.819 C 126.130 257.599, 126.456 257.762, 127.612 257.319 C 128.769 256.875, 129.095 257.038, 128.612 257.819 C 128.130 258.599, 128.456 258.762, 129.612 258.319 C 130.769 257.875, 131.095 258.038, 130.612 258.819 C 130.130 259.599, 130.456 259.762, 131.612 259.319 C 132.769 258.875, 133.095 259.038, 132.612 259.819 C 132.140 260.582, 132.439 260.769, 133.489 260.366 C 134.501 259.978, 134.976 260.234, 134.791 261.068 C 134.631 261.790, 135.287 262.553, 136.250 262.764 C 137.213 262.974, 138 262.668, 138 262.082 C 138 261.497, 133.535 258.778, 128.077 256.039 C 122.620 253.300, 117.825 250.527, 117.423 249.875 C 116.981 249.160, 117.119 248.955, 117.771 249.358 C 119.260 250.279, 124.085 247.947, 123.305 246.684 C 122.917 246.057, 123.337 245.915, 124.388 246.319 C 125.544 246.762, 125.870 246.599, 125.388 245.819 C 124.905 245.038, 125.231 244.875, 126.388 245.319 C 127.544 245.762, 127.870 245.599, 127.388 244.819 C 126.905 244.038, 127.231 243.875, 128.388 244.319 C 129.544 244.762, 129.870 244.599, 129.388 243.819 C 128.905 243.038, 129.231 242.875, 130.388 243.319 C 131.544 243.762, 131.870 243.599, 131.388 242.819 C 130.905 242.038, 131.231 241.875, 132.388 242.319 C 133.544 242.762, 133.870 242.599, 133.388 241.819 C 132.905 241.038, 133.231 240.875, 134.388 241.319 C 135.544 241.762, 135.870 241.599, 135.388 240.819 C 134.910 240.045, 135.225 239.872, 136.336 240.299 C 137.251 240.650, 138 240.501, 138 239.969 C 138 238.216, 135.629 239.037, 124.750 244.560 M 331 239.941 C 331 240.275, 335.337 242.703, 340.638 245.336 C 347.746 248.867, 350.568 249.830, 351.388 249.003 C 352.208 248.176, 351.997 248.073, 350.586 248.611 C 349.259 249.116, 348.891 248.985, 349.388 248.181 C 349.870 247.401, 349.544 247.238, 348.388 247.681 C 347.231 248.125, 346.905 247.962, 347.388 247.181 C 347.870 246.401, 347.544 246.238, 346.388 246.681 C 345.231 247.125, 344.905 246.962, 345.388 246.181 C 345.870 245.401, 345.544 245.238, 344.388 245.681 C 343.231 246.125, 342.905 245.962, 343.388 245.181 C 343.870 244.401, 343.544 244.238, 342.388 244.681 C 341.231 245.125, 340.905 244.962, 341.388 244.181 C 341.870 243.401, 341.544 243.238, 340.388 243.681 C 339.231 244.125, 338.905 243.962, 339.388 243.181 C 339.870 242.401, 339.544 242.238, 338.388 242.681 C 337.231 243.125, 336.905 242.962, 337.388 242.181 C 337.870 241.401, 337.544 241.238, 336.388 241.681 C 335.231 242.125, 334.905 241.962, 335.388 241.181 C 335.870 240.401, 335.544 240.238, 334.388 240.681 C 333.355 241.078, 332.919 240.941, 333.292 240.337 C 333.633 239.785, 333.257 239.333, 332.456 239.333 C 331.655 239.333, 331 239.607, 331 239.941 M 162.141 242 C 162.141 242.825, 162.527 244.400, 163 245.500 C 163.542 246.761, 163.859 246.945, 163.859 246 C 163.859 245.175, 163.473 243.600, 163 242.500 C 162.458 241.239, 162.141 241.055, 162.141 242 M 182.320 248 C 182.320 251.575, 182.502 253.037, 182.723 251.250 C 182.945 249.463, 182.945 246.537, 182.723 244.750 C 182.502 242.963, 182.320 244.425, 182.320 248 M 192.320 248 C 192.320 251.575, 192.502 253.037, 192.723 251.250 C 192.945 249.463, 192.945 246.537, 192.723 244.750 C 192.502 242.963, 192.320 244.425, 192.320 248 M 307.310 247.500 C 307.315 250.800, 307.502 252.029, 307.725 250.232 C 307.947 248.435, 307.943 245.735, 307.715 244.232 C 307.486 242.729, 307.304 244.200, 307.310 247.500 M 317.300 248 C 317.300 251.025, 317.487 252.262, 317.716 250.750 C 317.945 249.238, 317.945 246.762, 317.716 245.250 C 317.487 243.738, 317.300 244.975, 317.300 248 M 271.252 247.500 C 271.263 249.700, 271.468 250.482, 271.707 249.238 C 271.946 247.994, 271.937 246.194, 271.687 245.238 C 271.437 244.282, 271.241 245.300, 271.252 247.500 M 161.141 246 C 161.141 246.825, 161.527 248.400, 162 249.500 C 162.542 250.761, 162.859 250.945, 162.859 250 C 162.859 249.175, 162.473 247.600, 162 246.500 C 161.458 245.239, 161.141 245.055, 161.141 246 M 160.141 250 C 160.141 250.825, 160.527 252.400, 161 253.500 C 161.542 254.761, 161.859 254.945, 161.859 254 C 161.859 253.175, 161.473 251.600, 161 250.500 C 160.458 249.239, 160.141 249.055, 160.141 250 M 352.131 250.342 C 351.519 251.080, 351.351 252.052, 351.759 252.501 C 352.166 252.951, 351.689 253.027, 350.698 252.671 C 349.477 252.232, 349.127 252.396, 349.612 253.181 C 350.095 253.962, 349.769 254.125, 348.612 253.681 C 347.456 253.238, 347.130 253.401, 347.612 254.181 C 348.095 254.962, 347.769 255.125, 346.612 254.681 C 345.456 254.238, 345.130 254.401, 345.612 255.181 C 346.095 255.962, 345.769 256.125, 344.612 255.681 C 343.456 255.238, 343.130 255.401, 343.612 256.181 C 344.095 256.962, 343.769 257.125, 342.612 256.681 C 341.456 256.238, 341.130 256.401, 341.612 257.181 C 342.095 257.962, 341.769 258.125, 340.612 257.681 C 339.456 257.238, 339.130 257.401, 339.612 258.181 C 340.095 258.962, 339.769 259.125, 338.612 258.681 C 337.456 258.238, 337.130 258.401, 337.612 259.181 C 338.095 259.962, 337.769 260.125, 336.612 259.681 C 335.456 259.238, 335.130 259.401, 335.612 260.181 C 336.095 260.962, 335.769 261.125, 334.612 260.681 C 333.456 260.238, 333.130 260.401, 333.612 261.181 C 334.090 261.955, 333.775 262.128, 332.664 261.701 C 331.749 261.350, 331 261.499, 331 262.031 C 331 262.564, 331.457 263, 332.017 263 C 333.282 263, 355 252.155, 355 251.523 C 355 251.270, 354.212 251.358, 353.250 251.719 C 351.718 252.293, 351.671 252.165, 352.872 250.687 C 353.627 249.759, 354.020 249, 353.745 249 C 353.470 249, 352.744 249.604, 352.131 250.342 M 227.116 253.168 C 227.052 254.086, 226.741 255.661, 226.424 256.668 C 225.879 258.404, 225.909 258.407, 226.992 256.719 C 227.620 255.739, 227.931 254.164, 227.683 253.219 C 227.277 251.670, 227.221 251.665, 227.116 253.168 M 158.031 258 C 158.031 258.825, 158.467 260.175, 159 261 C 159.862 262.333, 159.969 262.333, 159.969 261 C 159.969 260.175, 159.533 258.825, 159 258 C 158.138 256.667, 158.031 256.667, 158.031 258 M 274.910 260.832 C 275.450 261.840, 276.676 263.302, 277.637 264.082 C 278.717 264.960, 278.475 264.261, 277.003 262.250 C 274.377 258.662, 273.392 257.995, 274.910 260.832 M 298.093 265.574 C 295.669 266.908, 294.266 268, 294.975 268 C 296.295 268, 303 264.172, 303 263.418 C 303 262.860, 303.121 262.807, 298.093 265.574 M 156.141 265 C 156.141 265.825, 156.527 267.400, 157 268.500 C 157.542 269.761, 157.859 269.945, 157.859 269 C 157.859 268.175, 157.473 266.600, 157 265.500 C 156.458 264.239, 156.141 264.055, 156.141 265 M 308.302 269.617 C 305.443 272.586, 303.907 274.585, 304.888 274.060 C 306.686 273.098, 314 265.422, 314 264.497 C 314 263.724, 313.823 263.883, 308.302 269.617 M 201.441 266.445 C 202.509 267.300, 204.084 267.964, 204.941 267.921 C 206.288 267.853, 206.296 267.766, 205 267.286 C 204.175 266.980, 202.600 266.316, 201.500 265.810 C 199.532 264.904, 199.531 264.915, 201.441 266.445 M 224 271.184 C 221.525 273.441, 220.405 274.814, 221.511 274.236 C 222.617 273.658, 224.384 272.233, 225.438 271.069 C 226.876 269.480, 227.547 269.267, 228.132 270.214 C 228.633 271.024, 228.851 270.674, 228.743 269.237 C 228.650 268.007, 228.558 267.018, 228.537 267.041 C 228.517 267.064, 226.475 268.928, 224 271.184 M 155.141 269 C 155.141 269.825, 155.527 271.400, 156 272.500 C 156.542 273.761, 156.859 273.945, 156.859 273 C 156.859 272.175, 156.473 270.600, 156 269.500 C 155.458 268.239, 155.141 268.055, 155.141 269 M 245.881 271.219 C 246.342 273.996, 246.482 274.136, 246.797 272.135 C 247.002 270.834, 246.757 269.357, 246.253 268.853 C 245.698 268.298, 245.552 269.231, 245.881 271.219 M 153.284 278.250 C 153.368 279.762, 153.788 281, 154.218 281 C 155.178 281, 155.121 280.105, 153.995 277.500 C 153.250 275.774, 153.152 275.877, 153.284 278.250 M 206.750 277.706 C 207.988 277.944, 210.012 277.944, 211.250 277.706 C 212.488 277.467, 211.475 277.272, 209 277.272 C 206.525 277.272, 205.512 277.467, 206.750 277.706 M 288.750 277.706 C 289.988 277.944, 292.012 277.944, 293.250 277.706 C 294.488 277.467, 293.475 277.272, 291 277.272 C 288.525 277.272, 287.512 277.467, 288.750 277.706" stroke="none" fill="#acb3be" fill-rule="evenodd"/><path d="M 215.699 196.634 C 214.362 197.971, 214.990 202.782, 216.582 203.393 C 217.452 203.727, 220.602 204, 223.582 204 L 229 204 229 216 C 229 222.600, 228.823 228, 228.606 228 C 228.389 228, 226.701 226.584, 224.856 224.853 C 220.128 220.418, 215.465 218.688, 208.326 218.720 C 196.943 218.771, 188.008 225.488, 184.504 236.627 C 182.258 243.767, 182.803 255.582, 185.673 262 C 189.678 270.954, 198.864 277.008, 208.428 276.994 C 214.923 276.986, 219.410 275.271, 224.373 270.903 L 229 266.830 229 270.215 C 229 274.974, 230.506 276.002, 237.450 275.985 C 244.802 275.966, 246.261 275.166, 245.830 271.391 C 245.531 268.768, 245.107 268.472, 241.263 268.193 L 237.025 267.886 236.763 232.193 L 236.500 196.500 226.449 196.217 C 220.922 196.062, 216.084 196.249, 215.699 196.634 M 253.405 197.387 C 253.095 198.194, 252.990 199.900, 253.171 201.177 C 253.455 203.183, 254.149 203.542, 258.250 203.805 L 263 204.110 263 235.997 L 263 267.885 258.750 268.193 C 254.892 268.472, 254.470 268.767, 254.170 271.391 C 253.737 275.182, 255.195 275.966, 262.715 275.985 C 269.505 276.001, 271 274.829, 271 269.489 L 271 266.846 274.106 269.952 C 280.344 276.190, 288.587 278.258, 298.107 275.974 C 302.345 274.958, 304.500 273.630, 308.651 269.480 C 315.200 262.930, 317.477 256.229, 316.773 245.579 C 315.663 228.813, 306.239 218.798, 291.500 218.723 C 284.565 218.688, 279.849 220.438, 274.703 224.956 L 271.052 228.162 270.776 212.331 L 270.500 196.500 262.234 196.209 C 255.697 195.979, 253.851 196.226, 253.405 197.387 M 168.133 222.649 C 167.584 224.767, 166.625 228.458, 166.002 230.851 C 165.378 233.244, 165.064 235.397, 165.302 235.635 C 165.540 235.874, 166.669 232.352, 167.810 227.810 C 168.950 223.267, 169.714 219.381, 169.508 219.174 C 169.301 218.967, 168.682 220.531, 168.133 222.649 M 202.450 228.352 C 192.952 232.660, 189.081 247.190, 194.392 258.596 C 197.477 265.219, 202.213 268.286, 209.359 268.286 C 220.937 268.286, 228.238 260.536, 228.351 248.124 C 228.462 235.979, 221.825 227.904, 211.235 227.297 C 207.799 227.100, 204.278 227.523, 202.450 228.352 M 283 228.118 C 275.431 231.121, 270.115 241.613, 271.496 250.823 C 272.919 260.309, 277.720 266.028, 285.781 267.840 C 297.640 270.504, 306.527 263.310, 307.727 250.073 C 308.653 239.859, 304.151 230.884, 296.685 228.064 C 293.227 226.757, 286.362 226.785, 283 228.118 M 161.593 247.593 C 160.123 253.457, 159.104 258.438, 159.328 258.662 C 159.552 258.886, 160.938 254.271, 162.407 248.407 C 163.877 242.543, 164.896 237.562, 164.672 237.338 C 164.448 237.114, 163.062 241.729, 161.593 247.593 M 332 239.483 C 332 239.758, 336.829 242.405, 342.732 245.366 L 353.464 250.750 342.482 256.323 C 336.442 259.389, 331.845 261.920, 332.267 261.948 C 333.343 262.021, 355.290 250.950, 354.855 250.553 C 353.858 249.643, 332 239.056, 332 239.483 M 129 243.500 C 125.425 245.372, 122.950 246.903, 123.500 246.903 C 124.050 246.903, 127.425 245.372, 131 243.500 C 134.575 241.628, 137.050 240.097, 136.500 240.097 C 135.950 240.097, 132.575 241.628, 129 243.500 M 115 250.948 C 115 251.650, 136.082 262.252, 136.548 261.785 C 136.723 261.610, 131.946 258.966, 125.933 255.910 C 119.920 252.853, 115 250.620, 115 250.948 M 155.721 270.077 C 154.322 275.657, 153.525 279.835, 153.950 279.361 C 154.914 278.288, 159.232 260.898, 158.673 260.340 C 158.449 260.115, 157.120 264.497, 155.721 270.077" stroke="none" fill="#fafafb" fill-rule="evenodd"/></svg>